<svg xmlns="http://www.w3.org/2000/svg" viewBox="0 0 613.08 385.98">
  <defs>
    <style>
      .cls-1, .cls-2, .cls-5 {
        fill: none;
      }

      .cls-1 {
        stroke: #a2dadb;
      }

      .cls-1, .cls-10, .cls-12, .cls-2, .cls-29, .cls-3, .cls-30, .cls-5, .cls-6, .cls-8 {
        stroke-miterlimit: 10;
      }

      .cls-1, .cls-12, .cls-13, .cls-2, .cls-29, .cls-30, .cls-6, .cls-7, .cls-8, .cls-9 {
        stroke-width: 0.5px;
      }

      .cls-2 {
        stroke: #fff;
      }

      .cls-3 {
        fill: #e4e5e6;
      }

      .cls-3, .cls-4 {
        stroke: #c7c8ca;
      }

      .cls-4 {
        fill: #d1d3d4;
      }

      .cls-11, .cls-13, .cls-4, .cls-7, .cls-9 {
        stroke-linejoin: bevel;
      }

      .cls-5 {
        stroke: #231f20;
      }

      .cls-6 {
        fill: #d4e3f5;
      }

      .cls-6, .cls-7 {
        stroke: #a2b9e0;
      }

      .cls-7 {
        fill: #bad2ed;
      }

      .cls-8 {
        fill: #ffefcf;
        stroke: #f0c697;
      }

      .cls-9 {
        fill: #ffe3c1;
        stroke: #ffdaa2;
      }

      .cls-10 {
        fill: #fcdfeb;
        stroke: #eabdd8;
      }

      .cls-11 {
        fill: #ecdaea;
        stroke: #ebc6de;
      }

      .cls-12 {
        fill: #fee7dc;
      }

      .cls-12, .cls-13 {
        stroke: #fab49b;
      }

      .cls-13 {
        fill: #fdddce;
      }

      .cls-14, .cls-31 {
        font-size: 9px;
        font-family: Arial-BoldMT, Arial;
        font-weight: 700;
      }

      .cls-14, .cls-16, .cls-17, .cls-31 {
        fill: #231f20;
      }

      .cls-15 {
        letter-spacing: -0.07em;
      }

      .cls-16 {
        font-size: 8.57px;
      }

      .cls-16, .cls-17 {
        font-family: ArialMT, Arial;
      }

      .cls-17 {
        font-size: 7px;
      }

      .cls-18 {
        letter-spacing: -0.06em;
      }

      .cls-19 {
        letter-spacing: 0em;
      }

      .cls-20 {
        letter-spacing: -0.02em;
      }

      .cls-21 {
        letter-spacing: -0.06em;
      }

      .cls-22 {
        letter-spacing: 0em;
      }

      .cls-23 {
        letter-spacing: -0.02em;
      }

      .cls-24 {
        letter-spacing: 0em;
      }

      .cls-25 {
        letter-spacing: -0.06em;
      }

      .cls-26 {
        letter-spacing: -0.04em;
      }

      .cls-27 {
        fill: #808285;
      }

      .cls-27, .cls-28 {
        stroke: #77787b;
        stroke-linejoin: round;
      }

      .cls-28 {
        fill: #939598;
      }

      .cls-29 {
        fill: #e2dddb;
      }

      .cls-29, .cls-30 {
        stroke: #c1b6b3;
      }

      .cls-30 {
        fill: #d7cfcd;
      }

      .cls-31 {
        opacity: 0.96;
      }
    </style>
  </defs>
  <g id="Layer_5" data-name="Layer 5">
    <path class="cls-1" d="M352.53,387" transform="translate(-68.17 -194.58)"/>
    <path class="cls-1" d="M327.57,379.55" transform="translate(-68.17 -194.58)"/>
    <path class="cls-2" d="M330.18,384.48" transform="translate(-68.17 -194.58)"/>
    <path class="cls-2" d="M336.12,378.42" transform="translate(-68.17 -194.58)"/>
    <path class="cls-1" d="M339.18,389.3" transform="translate(-68.17 -194.58)"/>
    <path class="cls-1" d="M328.23,386.27" transform="translate(-68.17 -194.58)"/>
  </g>
  <g id="Layer_7" data-name="Layer 7">
    <g>
      <rect class="cls-3" x="1.02" y="211.61" width="148.76" height="32.98"/>
      <polygon class="cls-3" points="0.87 211.61 149.63 211.61 162.41 189.85 13.65 189.85 0.87 211.61"/>
      <rect class="cls-3" x="5.43" y="159.88" width="148.76" height="44.39"/>
      <polygon class="cls-4" points="157.99 197.43 157.99 153.11 154.2 159.88 154.2 204.04 149.78 211.74 149.78 244.64 162.41 222.75 162.41 189.85 157.99 197.43"/>
      <polygon class="cls-3" points="5.43 159.88 154.2 159.88 157.99 153.31 9.23 153.31 5.43 159.88"/>
      <polygon class="cls-5" points="5.43 204.27 5.43 159.88 9.23 153.31 157.99 153.31 157.99 189.85 162.41 189.85 162.41 222.75 149.78 244.64 1.02 244.59 0.87 211.61 5.43 204.27"/>
    </g>
    <g>
      <rect class="cls-6" x="225.38" y="211.61" width="148.76" height="32.32"/>
      <polygon class="cls-6" points="225.24 211.61 374 211.61 386.77 189.85 238.01 189.85 225.24 211.61"/>
      <rect class="cls-6" x="229.8" y="159.88" width="148.76" height="44.39"/>
      <polygon class="cls-7" points="382.36 197.43 382.36 153.11 378.56 159.88 378.56 204.04 374.14 211.74 374.14 243.98 386.77 222.09 386.77 189.85 382.36 197.43"/>
      <polygon class="cls-6" points="229.8 159.88 378.56 159.88 382.36 153.31 233.59 153.31 229.8 159.88"/>
      <polygon class="cls-5" points="229.8 204.27 229.8 159.88 233.59 153.31 382.36 153.31 382.36 189.85 386.77 189.85 386.77 222.09 374.14 243.98 225.38 243.92 225.24 211.61 229.8 204.27"/>
    </g>
    <g>
      <rect class="cls-8" x="450.73" y="211.51" width="149.22" height="32.32"/>
      <polygon class="cls-8" points="450.58 211.51 599.8 211.51 612.58 189.75 463.36 189.75 450.58 211.51"/>
      <rect class="cls-8" x="455.14" y="159.78" width="149.22" height="44.39"/>
      <polygon class="cls-9" points="608.16 197.33 608.16 153.01 604.36 159.78 604.36 203.95 599.95 211.64 599.95 243.88 612.58 221.99 612.58 189.75 608.16 197.33"/>
      <polygon class="cls-8" points="455.14 159.78 604.36 159.78 608.16 153.21 458.94 153.21 455.14 159.78"/>
      <polygon class="cls-5" points="455.14 204.17 455.14 159.78 458.94 153.21 608.16 153.21 608.16 189.75 612.58 189.75 612.58 221.99 599.95 243.88 450.73 243.82 450.58 211.51 455.14 204.17"/>
    </g>
    <g>
      <rect class="cls-10" x="338.73" y="352.1" width="149.64" height="33.32"/>
      <polygon class="cls-10" points="338.59 352.1 488.23 352.1 501 330.34 351.36 330.34 338.59 352.1"/>
      <rect class="cls-10" x="343.15" y="300.38" width="149.64" height="44.39"/>
      <polygon class="cls-11" points="496.58 337.92 496.58 293.6 492.79 300.38 492.79 344.54 488.37 352.23 488.37 385.48 501 363.58 501 330.34 496.58 337.92"/>
      <polygon class="cls-10" points="343.15 300.38 492.79 300.38 496.58 293.8 346.95 293.8 343.15 300.38"/>
      <polygon class="cls-5" points="343.15 344.76 343.15 300.38 346.95 293.8 496.58 293.8 496.58 330.34 501 330.34 501 363.58 488.37 385.48 338.73 385.42 338.59 352.1 343.15 344.76"/>
    </g>
    <g>
      <rect class="cls-12" x="113.91" y="352" width="149.44" height="32.26"/>
      <polygon class="cls-12" points="113.76 352 263.2 352 275.97 330.24 126.53 330.24 113.76 352"/>
      <rect class="cls-12" x="118.32" y="300.28" width="149.44" height="44.39"/>
      <polygon class="cls-13" points="271.56 337.82 271.56 293.5 267.76 300.28 267.76 344.44 263.34 352.13 263.34 384.32 275.97 362.42 275.97 330.24 271.56 337.82"/>
      <polygon class="cls-12" points="118.32 300.28 267.76 300.28 271.56 293.7 122.12 293.7 118.32 300.28"/>
      <polygon class="cls-5" points="118.32 344.67 118.32 300.28 122.12 293.7 271.56 293.7 271.56 330.24 275.97 330.24 275.97 362.42 263.34 384.32 113.91 384.26 113.76 352 118.32 344.67"/>
    </g>
    <path class="cls-1" d="M572.71,447.18" transform="translate(-68.17 -194.58)"/>
    <path class="cls-1" d="M561.75,439.69" transform="translate(-68.17 -194.58)"/>
    <path class="cls-2" d="M550.36,444.62" transform="translate(-68.17 -194.58)"/>
    <path class="cls-2" d="M554.89,438.56" transform="translate(-68.17 -194.58)"/>
    <path class="cls-1" d="M605.12,449.44" transform="translate(-68.17 -194.58)"/>
    <path class="cls-1" d="M548.41,446.41" transform="translate(-68.17 -194.58)"/>
    <text class="cls-14" transform="translate(141.49 369.86) scale(0.87 1)"><tspan class="cls-15">T</tspan><tspan x="4.83" y="0">echnology Development</tspan></text>
    <text class="cls-14" transform="translate(390.31 366.48) scale(0.87 1)">Research &amp;<tspan x="-3.49" y="10.8">Development</tspan></text>
    <text class="cls-16" transform="translate(352.08 310.16) scale(0.82 1)">Data<tspan x="0" y="10.29">Modeling</tspan><tspan x="0" y="20.58">Integrative Ontologies</tspan></text>
    <text class="cls-17" transform="translate(352.08 339.14)">Socioeconomic<tspan class="cls-18" x="47.47" y="0"> </tspan><tspan class="cls-19" x="49.03" y="0">Analysis</tspan></text>
    <text class="cls-17" transform="translate(15.74 176.24)">Minimum <tspan class="cls-20" x="30.33" y="0">V</tspan><tspan x="34.88" y="0">iable Product</tspan><tspan x="0" y="8.4">T2P/Sustainability Model</tspan></text>
    <text class="cls-14" transform="translate(35.11 225.12) scale(0.87 1)"><tspan class="cls-21">T<tspan class="cls-22" x="5" y="0">ransfer to Practice &amp;</tspan></tspan><tspan x="-26.49" y="10.8">Sustainability Model Development</tspan></text>
    <path class="cls-1" d="M531.13,379.53" transform="translate(-68.17 -194.58)"/>
    <path class="cls-2" d="M533.74,384.45" transform="translate(-68.17 -194.58)"/>
    <path class="cls-1" d="M531.79,386.24" transform="translate(-68.17 -194.58)"/>
    <text class="cls-14" transform="translate(268.58 225.12) scale(0.87 1)">User Relations &amp;<tspan x="-10.5" y="10.8">Product Development</tspan></text>
    <path class="cls-1" d="M559.68,387" transform="translate(-68.17 -194.58)"/>
    <path class="cls-1" d="M534.72,379.55" transform="translate(-68.17 -194.58)"/>
    <path class="cls-2" d="M537.33,384.48" transform="translate(-68.17 -194.58)"/>
    <path class="cls-2" d="M543.27,378.42" transform="translate(-68.17 -194.58)"/>
    <path class="cls-1" d="M546.33,389.3" transform="translate(-68.17 -194.58)"/>
    <path class="cls-1" d="M535.38,386.27" transform="translate(-68.17 -194.58)"/>
    <text class="cls-17" transform="translate(461.84 176.43)"><tspan class="cls-23">V<tspan class="cls-24" x="4.54" y="0">ibrant Urban Flooding research community</tspan></tspan><tspan x="0" y="8.4">Link community data to UF-OKN</tspan></text>
    <text class="cls-14" transform="translate(506.71 225.12) scale(0.87 1)">Science &amp;<tspan x="-54.26" y="10.8">Research Community Development</tspan></text>
    <path class="cls-5" d="M323.18,243.27" transform="translate(-68.17 -194.58)"/>
    <text class="cls-17" transform="translate(127.57 312.35)">UF-OKN Knowledge<tspan class="cls-25" x="63.41" y="0"> </tspan><tspan x="64.97" y="0">Assets</tspan><tspan x="0" y="8.4">Data Harvesting </tspan><tspan class="cls-20" x="52.13" y="8.4">W</tspan><tspan x="58.61" y="8.4">orkflows</tspan><tspan x="0" y="16.8">Operational Query Engine</tspan><tspan x="0" y="25.2">Public-facing</tspan><tspan class="cls-25" x="40.08" y="25.2"> </tspan><tspan x="41.63" y="25.2">API</tspan></text>
    <text class="cls-17" transform="translate(238.77 171.53)">Partner Data/Model<tspan class="cls-20" x="60.7" y="0"> </tspan><tspan class="cls-26" x="62.51" y="0">T</tspan><tspan x="66.53" y="0">ransfer to UF-OKN</tspan><tspan x="0" y="8.4">Partner/User</tspan><tspan class="cls-20" x="39.68" y="8.4"> </tspan><tspan class="cls-26" x="41.5" y="8.4">T</tspan><tspan x="45.51" y="8.4">raining</tspan><tspan x="0" y="16.8">Interpret Partner Feedback</tspan><tspan x="0" y="25.2">Expand User Base</tspan></text>
  </g>
  <g id="Layer_6" data-name="Layer 6">
    <g>
      <polygon class="cls-27" points="218.08 184.87 212.01 178.79 212.01 181.84 178.62 181.84 178.62 178.79 172.54 184.87 178.62 190.94 178.62 187.63 212.01 187.63 212.01 190.94 218.08 184.87"/>
      <polygon class="cls-27" points="170.2 188.75 172.54 184.87 178.62 178.79 176.27 182.68 170.2 188.75"/>
      <polygon class="cls-28" points="176.27 185.72 178.62 181.84 212.01 181.84 209.66 185.72 176.27 185.72"/>
      <polygon class="cls-27" points="176.27 194.82 178.62 190.94 178.62 187.63 176.27 191.52 176.27 194.82"/>
      <polygon class="cls-28" points="215.74 188.75 209.66 182.68 209.66 185.72 176.27 185.72 176.27 182.68 170.2 188.75 176.27 194.82 176.27 191.52 209.66 191.52 209.66 194.82 215.74 188.75"/>
      <polygon class="cls-27" points="209.8 182.68 212.14 178.79 218.08 184.87 215.74 188.75 209.8 182.68"/>
    </g>
    <g>
      <polygon class="cls-27" points="234.11 109.9 242.7 109.9 240.54 112.06 264.15 135.67 266.31 133.51 266.31 142.1 257.72 142.1 260.06 139.76 236.45 116.15 234.11 118.49 234.11 109.9"/>
      <polygon class="cls-27" points="261.79 139.57 264.15 135.67 240.33 111.85 238.08 115.6 261.79 139.57"/>
      <polygon class="cls-28" points="231.74 113.8 240.33 113.8 238.18 115.96 261.79 139.57 263.94 137.41 263.94 146 255.35 146 257.69 143.66 234.08 120.05 231.74 122.39 231.74 113.8"/>
      <polygon class="cls-28" points="240.23 113.71 242.7 109.9 234.2 110 231.74 113.8 240.23 113.71"/>
      <polygon class="cls-27" points="263.94 146 266.31 142.1 266.31 133.51 263.94 137.41 263.94 146"/>
    </g>
    <g>
      <polygon class="cls-27" points="331.02 328.5 324.94 322.42 324.94 325.47 291.55 325.47 291.55 322.42 285.48 328.5 291.55 334.57 291.55 331.26 324.94 331.26 324.94 334.57 331.02 328.5"/>
      <polygon class="cls-27" points="283.14 332.38 285.48 328.5 291.55 322.42 289.21 326.31 283.14 332.38"/>
      <polygon class="cls-28" points="289.21 329.35 291.55 325.47 324.94 325.47 322.6 329.35 289.21 329.35"/>
      <polygon class="cls-27" points="289.21 338.45 291.55 334.57 291.55 331.26 289.21 335.15 289.21 338.45"/>
      <polygon class="cls-28" points="328.67 332.38 322.6 326.31 322.6 329.35 289.21 329.35 289.21 326.31 283.14 332.38 289.21 338.45 289.21 335.15 322.6 335.15 322.6 338.45 328.67 332.38"/>
      <polygon class="cls-27" points="322.74 326.31 325.08 322.42 331.02 328.5 328.67 332.38 322.74 326.31"/>
    </g>
    <g>
      <polygon class="cls-27" points="441.99 185.34 435.91 179.27 435.91 182.31 402.52 182.31 402.52 179.27 396.45 185.34 402.52 191.42 402.52 188.11 435.91 188.11 435.91 191.42 441.99 185.34"/>
      <polygon class="cls-27" points="394.11 189.23 396.45 185.34 402.52 179.27 400.18 183.15 394.11 189.23"/>
      <polygon class="cls-28" points="400.18 186.2 402.52 182.31 435.91 182.31 433.57 186.2 400.18 186.2"/>
      <polygon class="cls-27" points="400.18 195.3 402.52 191.42 402.52 188.11 400.18 191.99 400.18 195.3"/>
      <polygon class="cls-28" points="439.64 189.23 433.57 183.15 433.57 186.2 400.18 186.2 400.18 183.15 394.11 189.23 400.18 195.3 400.18 191.99 433.57 191.99 433.57 195.3 439.64 189.23"/>
      <polygon class="cls-27" points="433.7 183.15 436.05 179.27 441.99 185.34 439.64 189.23 433.7 183.15"/>
    </g>
    <g>
      <polygon class="cls-27" points="361.39 247.95 369.98 247.95 367.82 250.11 391.43 273.72 393.59 271.56 393.58 280.15 385 280.15 387.33 277.81 363.72 254.2 361.38 256.54 361.39 247.95"/>
      <polygon class="cls-27" points="389.06 277.62 391.43 273.72 367.61 249.9 365.35 253.65 389.06 277.62"/>
      <polygon class="cls-28" points="359.02 251.85 367.61 251.85 365.45 254.01 389.06 277.62 391.22 275.46 391.22 284.05 382.63 284.05 384.97 281.71 361.36 258.1 359.02 260.44 359.02 251.85"/>
      <polygon class="cls-28" points="367.51 251.76 369.98 247.95 361.48 248.05 359.02 251.85 367.51 251.76"/>
      <polygon class="cls-27" points="391.22 284.05 393.58 280.15 393.59 271.56 391.22 275.46 391.22 284.05"/>
    </g>
    <g>
      <polygon class="cls-27" points="257.16 250.38 257.16 258.97 255 256.81 231.39 280.42 233.55 282.58 224.96 282.58 224.96 273.99 227.29 276.33 250.91 252.72 248.57 250.38 257.16 250.38"/>
      <polygon class="cls-27" points="254.64 254.26 254.64 262.85 257.16 258.97 257.16 250.38 254.64 254.26"/>
      <polygon class="cls-28" points="246.05 254.26 254.64 254.26 257.16 250.38 248.57 250.38 246.05 254.26"/>
      <polygon class="cls-28" points="222.44 277.85 224.78 280.21 227.29 276.33 224.96 273.99 222.44 277.85"/>
      <polygon class="cls-27" points="228.88 284.31 231.03 286.46 233.55 282.58 231.39 280.42 228.88 284.31"/>
      <polygon class="cls-28" points="254.64 254.26 254.64 262.85 252.49 260.7 228.88 284.31 231.03 286.46 222.44 286.46 222.44 277.87 224.78 280.21 248.39 256.6 246.05 254.26 254.64 254.26"/>
    </g>
    <g>
      <polygon class="cls-27" points="393.79 109.47 393.79 118.06 391.63 115.91 368.02 139.52 370.18 141.67 361.59 141.67 361.59 133.08 363.93 135.42 387.54 111.81 385.2 109.47 393.79 109.47"/>
      <polygon class="cls-27" points="391.27 113.36 391.27 121.95 393.79 118.06 393.79 109.47 391.27 113.36"/>
      <polygon class="cls-28" points="382.68 113.36 391.27 113.36 393.79 109.47 385.2 109.47 382.68 113.36"/>
      <polygon class="cls-28" points="359.07 136.94 361.41 139.31 363.93 135.42 361.59 133.08 359.07 136.94"/>
      <polygon class="cls-27" points="365.51 143.4 367.66 145.56 370.18 141.67 368.02 139.52 365.51 143.4"/>
      <polygon class="cls-28" points="391.27 113.36 391.27 121.95 389.12 119.79 365.51 143.4 367.66 145.56 359.07 145.56 359.07 136.97 361.41 139.31 385.02 115.69 382.68 113.36 391.27 113.36"/>
    </g>
    <g>
      <polygon class="cls-27" points="483.69 248.44 483.69 257.02 481.53 254.87 457.92 278.48 460.08 280.63 451.49 280.63 451.49 272.05 453.83 274.38 477.44 250.77 475.1 248.43 483.69 248.44"/>
      <polygon class="cls-27" points="481.17 252.32 481.18 260.91 483.69 257.02 483.69 248.44 481.17 252.32"/>
      <polygon class="cls-28" points="472.58 252.32 481.17 252.32 483.69 248.44 475.1 248.43 472.58 252.32"/>
      <polygon class="cls-28" points="448.97 275.91 451.31 278.27 453.83 274.38 451.49 272.05 448.97 275.91"/>
      <polygon class="cls-27" points="455.41 282.37 457.56 284.52 460.08 280.63 457.92 278.48 455.41 282.37"/>
      <polygon class="cls-28" points="481.17 252.32 481.18 260.91 479.02 258.75 455.41 282.37 457.56 284.52 448.98 284.52 448.97 275.93 451.31 278.27 474.92 254.66 472.58 252.32 481.17 252.32"/>
    </g>
  </g>
  <g id="Layer_2" data-name="Layer 2">
    <path class="cls-1" d="M221.68,191.63" transform="translate(-68.17 -194.58)"/>
    <path class="cls-2" d="M224.29,196.56" transform="translate(-68.17 -194.58)"/>
    <path class="cls-2" d="M230.23,190.5" transform="translate(-68.17 -194.58)"/>
    <g>
      <path class="cls-29" d="M303,273.48c-.37-23.19-3.36-30.13-25.73-34.42,4.73-4.5,7.77-11.5,7.77-19.36,0-13.59-3-24.61-20.25-24.61s-20.26,11-20.26,24.61a26.72,26.72,0,0,0,7.78,19.36c-22.13,4.24-25.3,11.08-25.72,33.65,0,1.88-.05,2-.06,1.76,0,.41,0,1.17,0,2.49,0,0,5.63,11.35,38.25,11.35S303.06,277,303.06,277v-1.84C303.06,275.26,303,275,303,273.48Z" transform="translate(-68.17 -194.58)"/>
      <path class="cls-30" d="M272.86,247.53l4.43-8.47c17.38,3.19,20.54,8.76,23,13.21,3.63,6.58,2.77,24.69,2.77,24.69l-4.43,8.47c0-9.6-.87-20-3.38-25.58C290.93,250.17,272.86,247.53,272.86,247.53Z" transform="translate(-68.17 -194.58)"/>
      <path class="cls-30" d="M242.61,212.88l5.24-9.77c2.7-5.18,7.55-8,16.92-8,17,0,20.29,11.21,20.29,24.61,0,3.54-.63,6.09-2.28,11.35l-5,9.39c1.1-3,2.59-9.12,2.59-12.62,0-13.4-2.94-24.26-20-24.26-9.59,0-15.15,3.92-17.8,9.32" transform="translate(-68.17 -194.58)"/>
      <path class="cls-30" d="M225.36,260l4.43-8.47c1.2-2,2.72-6.08,10.52-9.13a53.42,53.42,0,0,1,12-3.32l-4.43,8.47a71.76,71.76,0,0,0-8.15,1.95C226.84,253,225.36,260,225.36,260Z" transform="translate(-68.17 -194.58)"/>
      <path class="cls-29" d="M298.59,282c-.37-23.19-3.36-30.13-25.73-34.42,4.73-4.5,7.77-11.5,7.77-19.37,0-13.58-3-24.6-20.25-24.6s-20.25,11-20.25,24.6c0,7.87,3,14.87,7.77,19.37-22.13,4.24-25.3,11.07-25.72,33.65,0,1.88-.05,2-.06,1.76,0,.41,0,1.17,0,2.49,0,0,5.63,11.35,38.25,11.35s38.25-11.35,38.25-11.35v-1.84C298.63,283.73,298.61,283.46,298.59,282Z" transform="translate(-68.17 -194.58)"/>
      <text class="cls-31" transform="translate(176.17 74.73) scale(0.87 1)">Partners<tspan x="-21.99" y="10.8">(Existing &amp; Future)</tspan></text>
      <path class="cls-5" d="M298.63,285.43c-11.34,13-41,13.34-59,9.37-13.48-3-17.54-9.37-17.54-9.37,0-19.67,3.23-25.45,3.23-25.45l5.58-10.46a20.15,20.15,0,0,1,12.32-8.22c-4.14-7.57-3.06-16.5-3.06-16.5.91-10.07,3.34-13.64,3.34-13.64l4.31-8c4.48-8.65,17-8,17-8,20.29.81,20.25,18.81,20.25,18.81.8,11.4-2.28,17.15-2.28,17.15l-4.34,8.24c16,1.15,20.19,10.24,20.19,10.24C305.46,260,303.06,277,303.06,277Z" transform="translate(-68.17 -194.58)"/>
      <path class="cls-1" d="M229.9,189.15" transform="translate(-68.17 -194.58)"/>
      <path class="cls-1" d="M219,186.13" transform="translate(-68.17 -194.58)"/>
    </g>
    <path class="cls-2" d="M497,194.55" transform="translate(-68.17 -194.58)"/>
    <g>
      <path class="cls-29" d="M528,274.33c-.37-23.2-3.36-30.14-25.73-34.42a26.74,26.74,0,0,0,7.77-19.37c0-13.59-3-24.6-20.25-24.6s-20.26,11-20.26,24.6a26.74,26.74,0,0,0,7.77,19.37C455.2,244.15,452,251,451.61,273.56c0,1.88-.05,2-.06,1.76v2.49s5.64,11.35,38.26,11.35,38.25-11.35,38.25-11.35V276A13.12,13.12,0,0,1,528,274.33Z" transform="translate(-68.17 -194.58)"/>
      <path class="cls-30" d="M497.86,248.38l4.43-8.47c17.38,3.19,20.54,8.76,23,13.2,3.64,6.59,2.78,24.7,2.78,24.7l-4.43,8.46c0-9.6-.87-20-3.38-25.57C515.92,251,497.86,248.38,497.86,248.38Z" transform="translate(-68.17 -194.58)"/>
      <path class="cls-30" d="M467.61,213.72l5.24-9.77c2.7-5.18,7.55-8,16.91-8,17,0,20.3,11.2,20.3,24.6,0,3.55-.63,6.09-2.29,11.35l-5,9.39c1.1-3,2.58-9.11,2.58-12.62,0-13.39-2.93-24.25-20-24.25-9.58,0-15.14,3.92-17.79,9.31" transform="translate(-68.17 -194.58)"/>
      <path class="cls-30" d="M450.36,260.83l4.43-8.47c1.2-2,2.72-6.08,10.51-9.14a53.82,53.82,0,0,1,12-3.31l-4.42,8.47a69.05,69.05,0,0,0-8.15,2C451.84,253.88,450.36,260.83,450.36,260.83Z" transform="translate(-68.17 -194.58)"/>
      <path class="cls-29" d="M523.59,282.79c-.37-23.19-3.36-30.13-25.73-34.41A26.76,26.76,0,0,0,505.63,229c0-13.59-3-24.6-20.25-24.6s-20.26,11-20.26,24.6a26.76,26.76,0,0,0,7.78,19.37c-22.13,4.23-25.3,11.07-25.72,33.65,0,1.88-.05,2-.06,1.76v2.48s5.64,11.36,38.26,11.36,38.25-11.36,38.25-11.36v-1.83A13.28,13.28,0,0,1,523.59,282.79Z" transform="translate(-68.17 -194.58)"/>
      <text class="cls-14" transform="translate(395.62 82.18) scale(0.87 1)">Customers</text>
      <path class="cls-5" d="M523.63,286.27c-11.34,13-41,13.35-59,9.37-13.49-3-17.55-9.37-17.55-9.37,0-19.67,3.24-25.44,3.24-25.44l5.58-10.46a20.14,20.14,0,0,1,12.32-8.23c-4.15-7.56-3.07-16.5-3.07-16.5.92-10.07,3.34-13.64,3.34-13.64l4.32-8.05c4.47-8.64,17-8,17-8,20.29.81,20.25,18.81,20.25,18.81.8,11.39-2.29,17.14-2.29,17.14l-4.33,8.25c16,1.14,20.19,10.24,20.19,10.24,6.83,10.45,4.43,27.43,4.43,27.43Z" transform="translate(-68.17 -194.58)"/>
      <path class="cls-1" d="M443.28,190.18" transform="translate(-68.17 -194.58)"/>
      <path class="cls-2" d="M445.89,185.18" transform="translate(-68.17 -194.58)"/>
      <path class="cls-1" d="M454.9,190" transform="translate(-68.17 -194.58)"/>
      <path class="cls-1" d="M443.94,187" transform="translate(-68.17 -194.58)"/>
    </g>
  </g>
</svg>
