<svg xmlns="http://www.w3.org/2000/svg" viewBox="0 0 603.63 324.87">
  <defs>
    <style>
      .cls-1, .cls-2, .cls-5 {
        fill: none;
      }

      .cls-1 {
        stroke: #a2dadb;
      }

      .cls-1, .cls-18, .cls-2, .cls-20, .cls-22, .cls-24, .cls-27, .cls-28, .cls-3, .cls-5 {
        stroke-miterlimit: 10;
      }

      .cls-1, .cls-18, .cls-19, .cls-2, .cls-20, .cls-21, .cls-24, .cls-25, .cls-27, .cls-28 {
        stroke-width: 0.5px;
      }

      .cls-2 {
        stroke: #fff;
      }

      .cls-3 {
        fill: #e4e5e6;
      }

      .cls-3, .cls-4 {
        stroke: #c7c8ca;
      }

      .cls-4 {
        fill: #d1d3d4;
      }

      .cls-19, .cls-21, .cls-23, .cls-25, .cls-4 {
        stroke-linejoin: bevel;
      }

      .cls-5 {
        stroke: #231f20;
      }

      .cls-6 {
        font-size: 8.57px;
      }

      .cls-10, .cls-29, .cls-6, .cls-7 {
        fill: #231f20;
      }

      .cls-6, .cls-7 {
        font-family: ArialMT, Arial;
      }

      .cls-7 {
        font-size: 7px;
      }

      .cls-8 {
        letter-spacing: -0.06em;
      }

      .cls-9 {
        letter-spacing: 0em;
      }

      .cls-10, .cls-29 {
        font-size: 9px;
        font-family: Arial-BoldMT, Arial;
        font-weight: 700;
      }

      .cls-11 {
        letter-spacing: -0.06em;
      }

      .cls-12 {
        letter-spacing: 0em;
      }

      .cls-13 {
        letter-spacing: -0.02em;
      }

      .cls-14 {
        letter-spacing: 0em;
      }

      .cls-15 {
        letter-spacing: -0.06em;
      }

      .cls-16 {
        letter-spacing: -0.02em;
      }

      .cls-17 {
        letter-spacing: -0.04em;
      }

      .cls-18 {
        fill: #d4e3f5;
      }

      .cls-18, .cls-19 {
        stroke: #a2b9e0;
      }

      .cls-19 {
        fill: #bad2ed;
      }

      .cls-20 {
        fill: #ffefcf;
        stroke: #f0c697;
      }

      .cls-21 {
        fill: #ffe3c1;
        stroke: #ffdaa2;
      }

      .cls-22 {
        fill: #fcdfeb;
        stroke: #eabdd8;
      }

      .cls-23 {
        fill: #ecdaea;
        stroke: #ebc6de;
      }

      .cls-24 {
        fill: #fee7dc;
      }

      .cls-24, .cls-25 {
        stroke: #fab49b;
      }

      .cls-25 {
        fill: #fdddce;
      }

      .cls-26 {
        letter-spacing: -0.07em;
      }

      .cls-27 {
        fill: #e2dddb;
      }

      .cls-27, .cls-28 {
        stroke: #c1b6b3;
      }

      .cls-28 {
        fill: #d7cfcd;
      }

      .cls-29 {
        opacity: 0.96;
      }

      .cls-30 {
        fill: #808285;
      }

      .cls-30, .cls-31 {
        stroke: #77787b;
        stroke-linejoin: round;
      }

      .cls-31 {
        fill: #939598;
      }
    </style>
  </defs>
  <g id="Layer_7" data-name="Layer 7">
    <path class="cls-1" d="M352.53,387" transform="translate(-68.32 -194.58)"/>
    <path class="cls-1" d="M327.57,379.55" transform="translate(-68.32 -194.58)"/>
    <path class="cls-2" d="M330.18,384.48" transform="translate(-68.32 -194.58)"/>
    <path class="cls-2" d="M336.12,378.42" transform="translate(-68.32 -194.58)"/>
    <path class="cls-1" d="M339.18,389.3" transform="translate(-68.32 -194.58)"/>
    <path class="cls-1" d="M328.23,386.27" transform="translate(-68.32 -194.58)"/>
    <g>
      <rect class="cls-3" x="0.87" y="169.23" width="148.76" height="45.55"/>
      <polygon class="cls-4" points="149.63 169.37 149.63 214.84 153.43 208.13 153.43 162.66 149.63 169.37"/>
      <polygon class="cls-3" points="0.87 169.23 149.63 169.23 153.43 162.66 4.66 162.66 0.87 169.23"/>
      <polygon class="cls-5" points="4.66 162.66 153.43 162.66 153.43 208.13 149.63 214.84 0.87 214.79 0.72 169.23 4.66 162.66"/>
    </g>
    <path class="cls-1" d="M572.71,425.56" transform="translate(-68.32 -194.58)"/>
    <path class="cls-1" d="M561.75,418.07" transform="translate(-68.32 -194.58)"/>
    <path class="cls-2" d="M550.36,423" transform="translate(-68.32 -194.58)"/>
    <path class="cls-2" d="M554.89,416.94" transform="translate(-68.32 -194.58)"/>
    <path class="cls-1" d="M605.12,427.81" transform="translate(-68.32 -194.58)"/>
    <path class="cls-1" d="M548.41,424.79" transform="translate(-68.32 -194.58)"/>
    <text class="cls-6" transform="translate(351.93 288.54) scale(0.82 1)">Data<tspan x="0" y="10.29">Modeling</tspan><tspan x="0" y="20.58">Integrative Ontologies</tspan></text>
    <text class="cls-7" transform="translate(351.93 317.51)">Socioeconomic<tspan class="cls-8" x="47.47" y="0"> </tspan><tspan class="cls-9" x="49.03" y="0">Analysis</tspan></text>
    <text class="cls-10" transform="translate(34.96 188.75) scale(0.87 1)"><tspan class="cls-11">T<tspan class="cls-12" x="5" y="0">ransfer to Practice &amp;</tspan></tspan><tspan x="-26.49" y="10.8">Sustainability Model Development</tspan></text>
    <path class="cls-1" d="M531.13,379.53" transform="translate(-68.32 -194.58)"/>
    <path class="cls-2" d="M533.74,384.45" transform="translate(-68.32 -194.58)"/>
    <path class="cls-1" d="M531.79,386.24" transform="translate(-68.32 -194.58)"/>
    <path class="cls-1" d="M559.68,387" transform="translate(-68.32 -194.58)"/>
    <path class="cls-1" d="M534.72,379.55" transform="translate(-68.32 -194.58)"/>
    <path class="cls-2" d="M537.33,384.48" transform="translate(-68.32 -194.58)"/>
    <path class="cls-2" d="M543.27,378.42" transform="translate(-68.32 -194.58)"/>
    <path class="cls-1" d="M546.33,389.3" transform="translate(-68.32 -194.58)"/>
    <path class="cls-1" d="M535.38,386.27" transform="translate(-68.32 -194.58)"/>
    <text class="cls-7" transform="translate(461.69 176.43)"><tspan class="cls-13">V<tspan class="cls-14" x="4.54" y="0">ibrant Urban Flooding research community</tspan></tspan><tspan x="0" y="8.4">Link community data to UF-OKN</tspan></text>
    <path class="cls-5" d="M323.18,243.27" transform="translate(-68.32 -194.58)"/>
    <text class="cls-7" transform="translate(127.42 290.73)">UF-OKN Knowledge<tspan class="cls-15" x="63.41" y="0"> </tspan><tspan x="64.97" y="0">Assets</tspan><tspan x="0" y="8.4">Data Harvesting </tspan><tspan class="cls-16" x="52.13" y="8.4">W</tspan><tspan x="58.61" y="8.4">orkflows</tspan><tspan x="0" y="16.8">Operational Query Engine</tspan><tspan x="0" y="25.2">Public-facing</tspan><tspan class="cls-15" x="40.08" y="25.2"> </tspan><tspan x="41.63" y="25.2">API</tspan></text>
    <text class="cls-7" transform="translate(238.62 171.53)">Partner Data/Model<tspan class="cls-16" x="60.7" y="0"> </tspan><tspan class="cls-17" x="62.51" y="0">T</tspan><tspan x="66.53" y="0">ransfer to UF-OKN</tspan><tspan x="0" y="8.4">Partner/User</tspan><tspan class="cls-16" x="39.68" y="8.4"> </tspan><tspan class="cls-17" x="41.5" y="8.4">T</tspan><tspan x="45.51" y="8.4">raining</tspan><tspan x="0" y="16.8">Interpret Partner Feedback</tspan><tspan x="0" y="25.2">Expand User Base</tspan></text>
    <g>
      <rect class="cls-18" x="225.72" y="169.23" width="148.76" height="45.55"/>
      <polygon class="cls-19" points="374.48 169.37 374.48 214.84 378.28 208.13 378.28 162.66 374.48 169.37"/>
      <polygon class="cls-18" points="225.72 169.23 374.48 169.23 378.28 162.66 229.52 162.66 225.72 169.23"/>
      <polygon class="cls-5" points="229.52 162.66 378.28 162.66 378.28 208.13 374.48 214.84 225.72 214.79 225.57 169.23 229.52 162.66"/>
    </g>
    <text class="cls-10" transform="translate(267.42 187.63) scale(0.87 1)">User Relations &amp;<tspan x="-10.5" y="10.8">Product Development</tspan></text>
    <g>
      <rect class="cls-20" x="450.57" y="169.23" width="148.76" height="45.55"/>
      <polygon class="cls-21" points="599.34 169.37 599.34 214.84 603.13 208.13 603.13 162.66 599.34 169.37"/>
      <polygon class="cls-20" points="450.57 169.23 599.34 169.23 603.13 162.66 454.37 162.66 450.57 169.23"/>
      <polygon class="cls-5" points="454.37 162.66 603.13 162.66 603.13 208.13 599.34 214.84 450.57 214.79 450.43 169.23 454.37 162.66"/>
    </g>
    <text class="cls-10" transform="translate(476.68 189.46) scale(0.87 1)">Urban Flooding Science &amp;<tspan x="-19.76" y="10.8">Research Community Development</tspan></text>
    <g>
      <rect class="cls-22" x="338.62" y="278.76" width="148.76" height="45.55"/>
      <polygon class="cls-23" points="487.38 278.89 487.38 324.37 491.18 317.66 491.18 272.18 487.38 278.89"/>
      <polygon class="cls-22" points="338.62 278.76 487.38 278.76 491.18 272.18 342.42 272.18 338.62 278.76"/>
      <polygon class="cls-5" points="342.42 272.18 491.18 272.18 491.18 317.66 487.38 324.37 338.62 324.31 338.48 278.76 342.42 272.18"/>
    </g>
    <text class="cls-10" transform="translate(390.16 298.27) scale(0.87 1)">Research &amp;<tspan x="-3.49" y="10.8">Development</tspan></text>
    <g>
      <rect class="cls-24" x="114.27" y="278.46" width="148.76" height="45.55"/>
      <polygon class="cls-25" points="263.03 278.59 263.03 324.07 266.82 317.36 266.82 271.88 263.03 278.59"/>
      <polygon class="cls-24" points="114.27 278.46 263.03 278.46 266.82 271.88 118.06 271.88 114.27 278.46"/>
      <polygon class="cls-5" points="118.06 271.88 266.82 271.88 266.82 317.36 263.03 324.07 114.27 324.01 114.12 278.46 118.06 271.88"/>
    </g>
    <text class="cls-10" transform="translate(141.34 303.85) scale(0.87 1)"><tspan class="cls-26">T</tspan><tspan x="4.83" y="0">echnology Development</tspan></text>
    <path class="cls-1" d="M221.68,191.63" transform="translate(-68.32 -194.58)"/>
    <path class="cls-2" d="M224.29,196.56" transform="translate(-68.32 -194.58)"/>
    <path class="cls-2" d="M230.23,190.5" transform="translate(-68.32 -194.58)"/>
    <g>
      <path class="cls-27" d="M303,273.48c-.37-23.19-3.36-30.13-25.73-34.42,4.73-4.5,7.77-11.5,7.77-19.36,0-13.59-3-24.61-20.25-24.61s-20.26,11-20.26,24.61a26.72,26.72,0,0,0,7.78,19.36c-22.13,4.24-25.3,11.08-25.72,33.65,0,1.88-.05,2-.06,1.76,0,.41,0,1.17,0,2.49,0,0,5.63,11.35,38.25,11.35S303.06,277,303.06,277v-1.84C303.06,275.26,303,275,303,273.48Z" transform="translate(-68.32 -194.58)"/>
      <path class="cls-28" d="M272.86,247.53l4.43-8.47c17.38,3.19,20.54,8.76,23,13.21,3.63,6.58,2.77,24.69,2.77,24.69l-4.43,8.47c0-9.6-.87-20-3.38-25.58C290.93,250.17,272.86,247.53,272.86,247.53Z" transform="translate(-68.32 -194.58)"/>
      <path class="cls-28" d="M242.61,212.88l5.24-9.77c2.7-5.18,7.55-8,16.92-8,17,0,20.29,11.21,20.29,24.61,0,3.54-.63,6.09-2.28,11.35l-5,9.39c1.1-3,2.59-9.12,2.59-12.62,0-13.4-2.94-24.26-20-24.26-9.59,0-15.15,3.92-17.8,9.32" transform="translate(-68.32 -194.58)"/>
      <path class="cls-28" d="M225.36,260l4.43-8.47c1.2-2,2.72-6.08,10.52-9.13a53.42,53.42,0,0,1,12-3.32l-4.43,8.47a71.76,71.76,0,0,0-8.15,1.95C226.84,253,225.36,260,225.36,260Z" transform="translate(-68.32 -194.58)"/>
      <path class="cls-27" d="M298.59,282c-.37-23.19-3.36-30.13-25.73-34.42,4.73-4.5,7.77-11.5,7.77-19.37,0-13.58-3-24.6-20.25-24.6s-20.25,11-20.25,24.6c0,7.87,3,14.87,7.77,19.37-22.13,4.24-25.3,11.07-25.72,33.65,0,1.88-.05,2-.06,1.76,0,.41,0,1.17,0,2.49,0,0,5.63,11.35,38.25,11.35s38.25-11.35,38.25-11.35v-1.84C298.63,283.73,298.61,283.46,298.59,282Z" transform="translate(-68.32 -194.58)"/>
      <text class="cls-29" transform="translate(176.02 74.73) scale(0.87 1)">Partners<tspan x="-21.99" y="10.8">(Existing &amp; Future)</tspan></text>
      <path class="cls-5" d="M298.63,285.43c-11.34,13-41,13.34-59,9.37-13.48-3-17.54-9.37-17.54-9.37,0-19.67,3.23-25.45,3.23-25.45l5.58-10.46a20.15,20.15,0,0,1,12.32-8.22c-4.14-7.57-3.06-16.5-3.06-16.5.91-10.07,3.34-13.64,3.34-13.64l4.31-8c4.48-8.65,17-8,17-8,20.29.81,20.25,18.81,20.25,18.81.8,11.4-2.28,17.15-2.28,17.15l-4.34,8.24c16,1.15,20.19,10.24,20.19,10.24C305.46,260,303.06,277,303.06,277Z" transform="translate(-68.32 -194.58)"/>
      <path class="cls-1" d="M229.9,189.15" transform="translate(-68.32 -194.58)"/>
      <path class="cls-1" d="M219,186.13" transform="translate(-68.32 -194.58)"/>
    </g>
    <path class="cls-2" d="M497,194.55" transform="translate(-68.32 -194.58)"/>
    <g>
      <path class="cls-27" d="M528,274.33c-.37-23.2-3.36-30.14-25.73-34.42a26.74,26.74,0,0,0,7.77-19.37c0-13.59-3-24.6-20.25-24.6s-20.26,11-20.26,24.6a26.74,26.74,0,0,0,7.77,19.37C455.2,244.15,452,251,451.61,273.56c0,1.88-.05,2-.06,1.76v2.49s5.64,11.35,38.26,11.35,38.25-11.35,38.25-11.35V276A13.12,13.12,0,0,1,528,274.33Z" transform="translate(-68.32 -194.58)"/>
      <path class="cls-28" d="M497.86,248.38l4.43-8.47c17.38,3.19,20.54,8.76,23,13.2,3.64,6.59,2.78,24.7,2.78,24.7l-4.43,8.46c0-9.6-.87-20-3.38-25.57C515.92,251,497.86,248.38,497.86,248.38Z" transform="translate(-68.32 -194.58)"/>
      <path class="cls-28" d="M467.61,213.72l5.24-9.77c2.7-5.18,7.55-8,16.91-8,17,0,20.3,11.2,20.3,24.6,0,3.55-.63,6.09-2.29,11.35l-5,9.39c1.1-3,2.58-9.11,2.58-12.62,0-13.39-2.93-24.25-20-24.25-9.58,0-15.14,3.92-17.79,9.31" transform="translate(-68.32 -194.58)"/>
      <path class="cls-28" d="M450.36,260.83l4.43-8.47c1.2-2,2.72-6.08,10.51-9.14a53.82,53.82,0,0,1,12-3.31l-4.42,8.47a69.05,69.05,0,0,0-8.15,2C451.84,253.88,450.36,260.83,450.36,260.83Z" transform="translate(-68.32 -194.58)"/>
      <path class="cls-27" d="M523.59,282.79c-.37-23.19-3.36-30.13-25.73-34.41A26.76,26.76,0,0,0,505.63,229c0-13.59-3-24.6-20.25-24.6s-20.26,11-20.26,24.6a26.76,26.76,0,0,0,7.78,19.37c-22.13,4.23-25.3,11.07-25.72,33.65,0,1.88-.05,2-.06,1.76v2.48s5.64,11.36,38.26,11.36,38.25-11.36,38.25-11.36v-1.83A13.28,13.28,0,0,1,523.59,282.79Z" transform="translate(-68.32 -194.58)"/>
      <text class="cls-10" transform="translate(395.47 82.18) scale(0.87 1)">Customers</text>
      <path class="cls-5" d="M523.63,286.27c-11.34,13-41,13.35-59,9.37-13.49-3-17.55-9.37-17.55-9.37,0-19.67,3.24-25.44,3.24-25.44l5.58-10.46a20.14,20.14,0,0,1,12.32-8.23c-4.15-7.56-3.07-16.5-3.07-16.5.92-10.07,3.34-13.64,3.34-13.64l4.32-8.05c4.47-8.64,17-8,17-8,20.29.81,20.25,18.81,20.25,18.81.8,11.39-2.29,17.14-2.29,17.14l-4.33,8.25c16,1.14,20.19,10.24,20.19,10.24,6.83,10.45,4.43,27.43,4.43,27.43Z" transform="translate(-68.32 -194.58)"/>
      <path class="cls-1" d="M443.28,190.18" transform="translate(-68.32 -194.58)"/>
      <path class="cls-2" d="M445.89,185.18" transform="translate(-68.32 -194.58)"/>
      <path class="cls-1" d="M454.9,190" transform="translate(-68.32 -194.58)"/>
      <path class="cls-1" d="M443.94,187" transform="translate(-68.32 -194.58)"/>
    </g>
    <g>
      <polygon class="cls-30" points="212.09 184.87 206.01 178.79 206.01 181.84 172.62 181.84 172.62 178.79 166.55 184.87 172.62 190.94 172.62 187.63 206.01 187.63 206.01 190.94 212.09 184.87"/>
      <polygon class="cls-30" points="164.21 188.75 166.55 184.87 172.62 178.79 170.28 182.68 164.21 188.75"/>
      <polygon class="cls-31" points="170.28 185.72 172.62 181.84 206.01 181.84 203.67 185.72 170.28 185.72"/>
      <polygon class="cls-30" points="170.28 194.82 172.62 190.94 172.62 187.63 170.28 191.52 170.28 194.82"/>
      <polygon class="cls-31" points="209.74 188.75 203.67 182.68 203.67 185.72 170.28 185.72 170.28 182.68 164.21 188.75 170.28 194.82 170.28 191.52 203.67 191.52 203.67 194.82 209.74 188.75"/>
      <polygon class="cls-30" points="203.8 182.68 206.15 178.79 212.09 184.87 209.74 188.75 203.8 182.68"/>
    </g>
    <g>
      <polygon class="cls-30" points="233.96 109.9 242.54 109.9 240.39 112.06 264 135.67 266.15 133.51 266.15 142.1 257.56 142.1 259.9 139.76 236.29 116.15 233.95 118.49 233.96 109.9"/>
      <polygon class="cls-30" points="261.63 139.57 264 135.67 240.18 111.85 237.92 115.6 261.63 139.57"/>
      <polygon class="cls-31" points="231.59 113.8 240.18 113.8 238.02 115.96 261.63 139.57 263.79 137.41 263.79 146 255.2 146 257.54 143.66 233.93 120.05 231.59 122.39 231.59 113.8"/>
      <polygon class="cls-31" points="240.08 113.71 242.54 109.9 234.05 110 231.59 113.8 240.08 113.71"/>
      <polygon class="cls-30" points="263.79 146 266.15 142.1 266.15 133.51 263.79 137.41 263.79 146"/>
    </g>
    <g>
      <polygon class="cls-30" points="325.02 296.86 318.95 290.79 318.95 293.83 285.56 293.83 285.56 290.79 279.49 296.86 285.56 302.93 285.56 299.63 318.95 299.63 318.95 302.93 325.02 296.86"/>
      <polygon class="cls-30" points="277.15 300.74 279.49 296.86 285.56 290.79 283.22 294.67 277.15 300.74"/>
      <polygon class="cls-31" points="283.22 297.72 285.56 293.83 318.95 293.83 316.61 297.72 283.22 297.72"/>
      <polygon class="cls-30" points="283.22 306.82 285.56 302.93 285.56 299.63 283.22 303.51 283.22 306.82"/>
      <polygon class="cls-31" points="322.68 300.74 316.61 294.67 316.61 297.72 283.22 297.72 283.22 294.67 277.15 300.74 283.22 306.82 283.22 303.51 316.61 303.51 316.61 306.82 322.68 300.74"/>
      <polygon class="cls-30" points="316.74 294.67 319.09 290.79 325.02 296.86 322.68 300.74 316.74 294.67"/>
    </g>
    <g>
      <polygon class="cls-30" points="435.99 185.34 429.92 179.27 429.92 182.31 396.53 182.31 396.53 179.27 390.46 185.34 396.53 191.42 396.53 188.11 429.92 188.11 429.92 191.42 435.99 185.34"/>
      <polygon class="cls-30" points="388.12 189.23 390.46 185.34 396.53 179.27 394.19 183.15 388.12 189.23"/>
      <polygon class="cls-31" points="394.19 186.2 396.53 182.31 429.92 182.31 427.58 186.2 394.19 186.2"/>
      <polygon class="cls-30" points="394.19 195.3 396.53 191.42 396.53 188.11 394.19 191.99 394.19 195.3"/>
      <polygon class="cls-31" points="433.65 189.23 427.58 183.15 427.58 186.2 394.19 186.2 394.19 183.15 388.12 189.23 394.19 195.3 394.19 191.99 427.58 191.99 427.58 195.3 433.65 189.23"/>
      <polygon class="cls-30" points="427.71 183.15 430.06 179.27 435.99 185.34 433.65 189.23 427.71 183.15"/>
    </g>
    <g>
      <polygon class="cls-30" points="361.23 226.33 369.82 226.33 367.67 228.49 391.28 252.1 393.43 249.94 393.43 258.53 384.84 258.53 387.18 256.19 363.57 232.58 361.23 234.92 361.23 226.33"/>
      <polygon class="cls-30" points="388.91 256 391.28 252.1 367.45 228.28 365.2 232.03 388.91 256"/>
      <polygon class="cls-31" points="358.87 230.23 367.45 230.23 365.3 232.38 388.91 256 391.07 253.84 391.06 262.43 382.48 262.43 384.81 260.09 361.2 236.48 358.87 238.82 358.87 230.23"/>
      <polygon class="cls-31" points="367.36 230.13 369.82 226.33 361.33 226.43 358.87 230.23 367.36 230.13"/>
      <polygon class="cls-30" points="391.06 262.43 393.43 258.53 393.43 249.94 391.07 253.84 391.06 262.43"/>
    </g>
    <g>
      <polygon class="cls-30" points="257 228.76 257 237.34 254.85 235.19 231.24 258.8 233.39 260.96 224.8 260.95 224.8 252.37 227.14 254.71 250.75 231.09 248.41 228.75 257 228.76"/>
      <polygon class="cls-30" points="254.49 232.64 254.49 241.23 257 237.34 257 228.76 254.49 232.64"/>
      <polygon class="cls-31" points="245.9 232.64 254.49 232.64 257 228.76 248.41 228.75 245.9 232.64"/>
      <polygon class="cls-31" points="222.29 256.23 224.63 258.59 227.14 254.71 224.8 252.37 222.29 256.23"/>
      <polygon class="cls-30" points="228.73 262.69 230.88 264.84 233.39 260.96 231.24 258.8 228.73 262.69"/>
      <polygon class="cls-31" points="254.49 232.64 254.49 241.23 252.34 239.07 228.73 262.69 230.88 264.84 222.29 264.84 222.29 256.25 224.63 258.59 248.24 234.98 245.9 232.64 254.49 232.64"/>
    </g>
    <g>
      <polygon class="cls-30" points="393.63 109.47 393.64 118.06 391.48 115.91 367.87 139.52 370.02 141.67 361.44 141.67 361.44 133.08 363.77 135.42 387.38 111.81 385.05 109.47 393.63 109.47"/>
      <polygon class="cls-30" points="391.12 113.36 391.12 121.95 393.64 118.06 393.63 109.47 391.12 113.36"/>
      <polygon class="cls-31" points="382.53 113.36 391.12 113.36 393.63 109.47 385.05 109.47 382.53 113.36"/>
      <polygon class="cls-31" points="358.92 136.94 361.26 139.31 363.77 135.42 361.44 133.08 358.92 136.94"/>
      <polygon class="cls-30" points="365.36 143.4 367.51 145.56 370.02 141.67 367.87 139.52 365.36 143.4"/>
      <polygon class="cls-31" points="391.12 113.36 391.12 121.95 388.97 119.79 365.36 143.4 367.51 145.56 358.92 145.56 358.92 136.97 361.26 139.31 384.87 115.69 382.53 113.36 391.12 113.36"/>
    </g>
    <g>
      <polygon class="cls-30" points="483.54 226.81 483.54 235.4 481.38 233.25 457.77 256.86 459.93 259.01 451.34 259.01 451.33 250.42 453.67 252.76 477.29 229.15 474.94 226.81 483.54 226.81"/>
      <polygon class="cls-30" points="481.02 230.7 481.02 239.29 483.54 235.4 483.54 226.81 481.02 230.7"/>
      <polygon class="cls-31" points="472.43 230.7 481.02 230.7 483.54 226.81 474.94 226.81 472.43 230.7"/>
      <polygon class="cls-31" points="448.82 254.28 451.16 256.65 453.67 252.76 451.33 250.42 448.82 254.28"/>
      <polygon class="cls-30" points="455.26 260.74 457.41 262.9 459.93 259.01 457.77 256.86 455.26 260.74"/>
      <polygon class="cls-31" points="481.02 230.7 481.02 239.29 478.87 237.13 455.26 260.74 457.41 262.9 448.82 262.9 448.82 254.31 451.16 256.65 474.77 233.04 472.43 230.7 481.02 230.7"/>
    </g>
  </g>
</svg>
