<svg id="Layer_1" data-name="Layer 1" xmlns="http://www.w3.org/2000/svg" xmlns:xlink="http://www.w3.org/1999/xlink" viewBox="0 0 280.77 284.16">
  <defs>
    <style>
      .cls-1 {
        fill: none;
      }

      .cls-2 {
        fill: #fff;
      }

      .cls-3 {
        clip-path: url(#clip-path);
      }

      .cls-4 {
        fill: #f7d291;
      }

      .cls-5 {
        fill: #cd916e;
      }

      .cls-6 {
        fill: #edebed;
      }

      .cls-7 {
        fill: #dbd9dc;
      }

      .cls-8 {
        fill: #e3aa75;
      }

      .cls-9 {
        fill: #d29b6e;
      }

      .cls-10 {
        fill: #f0c382;
      }

      .cls-11 {
        fill: #b7b2b8;
      }

      .cls-12 {
        fill: #ffe1a0;
      }

      .cls-13 {
        fill: #5d5360;
      }

      .cls-14 {
        fill: #b67f5f;
      }

      .cls-15 {
        fill: #6f6571;
      }
    </style>
    <clipPath id="clip-path" transform="translate(-162.93 -323.84)">
      <circle class="cls-1" cx="303.31" cy="464.22" r="140.38"/>
    </clipPath>
  </defs>
  <circle class="cls-2" cx="140.38" cy="140.38" r="140.38"/>
  <g class="cls-3">
    <g>
      <path class="cls-4" d="M379.85,536.15,338.4,524a11.79,11.79,0,0,1-8.47-11.32v-18.7H274.86v18.7A11.78,11.78,0,0,1,266.39,524l-41.45,12.19A23.62,23.62,0,0,0,208,558.79v29.54c0,6.52,5.28,19.67,11.8,19.67H385c6.52,0,11.8-13.15,11.8-19.67V558.79A23.62,23.62,0,0,0,379.85,536.15Z" transform="translate(-162.93 -323.84)"/>
      <path class="cls-5" d="M379.85,536.15,338.4,524a29.85,29.85,0,0,0,3.33,1.44l-39.34,11.8-39.33-11.8a29.85,29.85,0,0,0,3.33-1.44l-41.45,12.19A23.62,23.62,0,0,0,208,558.79V596.2A11.8,11.8,0,0,0,219.8,608H385a11.8,11.8,0,0,0,11.8-11.8V558.79A23.62,23.62,0,0,0,379.85,536.15Z" transform="translate(-162.93 -323.84)"/>
      <path class="cls-6" d="M340.38,531.92l-4.69-4.69-33.29,6-33.3-6-4.69,4.69a31.45,31.45,0,0,0-9.21,22.25V608h94.39V554.17A31.45,31.45,0,0,0,340.38,531.92Z" transform="translate(-162.93 -323.84)"/>
      <path class="cls-7" d="M340.38,531.92l-4.69-4.69-33.29,6-33.3-6-4.69,4.69a31.29,31.29,0,0,0-4.9,6.42L274,555a11.81,11.81,0,0,0,17.23.58L302.4,544.4l11.13,11.13a11.8,11.8,0,0,0,17.22-.58l14.53-16.61A31.29,31.29,0,0,0,340.38,531.92Z" transform="translate(-162.93 -323.84)"/>
      <polygon class="cls-8" points="133.79 229.1 127.67 284.16 151.27 284.16 145.15 229.1 133.79 229.1"/>
      <path class="cls-9" d="M307.43,556.87H297.36a3.93,3.93,0,0,1-3.73-2.69l-7-20.91h31.47l-7,20.91A3.93,3.93,0,0,1,307.43,556.87Z" transform="translate(-162.93 -323.84)"/>
      <path class="cls-10" d="M274.86,502.72a58,58,0,0,0,55.07,0v-8.78H274.86Z" transform="translate(-162.93 -323.84)"/>
      <g>
        <path class="cls-11" d="M221.94,445.66l8.72,11.63a3.85,3.85,0,0,1,.74,3,26.9,26.9,0,0,1-1.18,4,7.85,7.85,0,0,0,4,9.68,83.2,83.2,0,0,0,28.85,8.09V383.81c-29.39,9.8-39.8,44-42.49,55.33A7.87,7.87,0,0,0,221.94,445.66Z" transform="translate(-162.93 -323.84)"/>
        <path class="cls-11" d="M382.85,445.66l-8.72,11.63a3.85,3.85,0,0,0-.74,3,26.9,26.9,0,0,0,1.18,4,7.85,7.85,0,0,1-4,9.68,83.2,83.2,0,0,1-28.85,8.09V383.81c29.39,9.8,39.8,44,42.49,55.33A7.83,7.83,0,0,1,382.85,445.66Z" transform="translate(-162.93 -323.84)"/>
      </g>
      <path class="cls-12" d="M357.46,435.14V419.21a55.07,55.07,0,0,0-110.13,0v15.93a9.84,9.84,0,0,0,2,19.47h2.16a51.08,51.08,0,0,0,101.87,0h2.16a9.83,9.83,0,0,0,2-19.47Z" transform="translate(-162.93 -323.84)"/>
      <g>
        <rect class="cls-4" x="108.01" y="107.17" width="19.67" height="9.75"/>
        <rect class="cls-4" x="151.27" y="107.17" width="19.67" height="9.75"/>
        <path class="cls-4" d="M270.93,450.67V415.28a51.14,51.14,0,0,1,41.43-50.19,54.91,54.91,0,0,0-65,54.12v15.93a9.84,9.84,0,0,0,2,19.47h2.16a51.11,51.11,0,0,0,50.94,47.2,51.88,51.88,0,0,0,9.88-1A51.14,51.14,0,0,1,270.93,450.67Z" transform="translate(-162.93 -323.84)"/>
      </g>
      <g>
        <path class="cls-13" d="M267,438.88H247.33a3.94,3.94,0,0,1,0-7.87H267a3.94,3.94,0,0,1,0,7.87Z" transform="translate(-162.93 -323.84)"/>
        <path class="cls-13" d="M357.46,438.88H337.79a3.94,3.94,0,0,1,0-7.87h19.67a3.94,3.94,0,0,1,0,7.87Z" transform="translate(-162.93 -323.84)"/>
        <path class="cls-13" d="M310.26,446.74a3.93,3.93,0,0,1-3.93-3.93,3.94,3.94,0,0,0-7.87,0,3.93,3.93,0,0,1-7.86,0,11.8,11.8,0,1,1,23.59,0A3.92,3.92,0,0,1,310.26,446.74Z" transform="translate(-162.93 -323.84)"/>
      </g>
      <g>
        <path class="cls-2" d="M272.24,516.52,261.87,529.1,280,549.77a3.93,3.93,0,0,0,5.74.19l16.7-16.69Z" transform="translate(-162.93 -323.84)"/>
        <path class="cls-2" d="M332.55,516.52l10.37,12.58-18.09,20.67a3.93,3.93,0,0,1-5.74.19L302.4,533.27Z" transform="translate(-162.93 -323.84)"/>
      </g>
      <g>
        <path class="cls-14" d="M235.53,608l-6.93-31.18a7.88,7.88,0,0,1,2.12-7.27l12.68-12.68-5.83-8.75a8,8,0,0,1-.89-7c9.38-28.18,38.18-35.38,38.18-35.38v7.59a19.66,19.66,0,0,1-5.76,13.9l-4.69,4.69a31.45,31.45,0,0,0-9.21,22.25V608" transform="translate(-162.93 -323.84)"/>
        <path class="cls-14" d="M369.26,608l6.93-31.18a7.88,7.88,0,0,0-2.12-7.27l-12.68-12.68,5.84-8.75a8.05,8.05,0,0,0,.88-7c-9.38-28.18-38.18-35.38-38.18-35.38v7.59a19.66,19.66,0,0,0,5.76,13.9l4.69,4.69a31.45,31.45,0,0,1,9.21,22.25V608" transform="translate(-162.93 -323.84)"/>
      </g>
      <g>
        <path class="cls-15" d="M286.66,454.61h-11.8a11.82,11.82,0,0,1-11.8-11.8V431a3.93,3.93,0,0,1,3.94-3.93h27.53a3.93,3.93,0,0,1,3.93,3.93v11.8A11.81,11.81,0,0,1,286.66,454.61Zm-15.73-19.67v7.87a3.93,3.93,0,0,0,3.93,3.93h11.8a3.94,3.94,0,0,0,3.94-3.93v-7.87Z" transform="translate(-162.93 -323.84)"/>
        <path class="cls-15" d="M329.93,454.61h-11.8a11.81,11.81,0,0,1-11.8-11.8V431a3.93,3.93,0,0,1,3.93-3.93h27.53a3.93,3.93,0,0,1,3.94,3.93v11.8A11.82,11.82,0,0,1,329.93,454.61Zm-15.74-19.67v7.87a3.94,3.94,0,0,0,3.94,3.93h11.8a3.93,3.93,0,0,0,3.93-3.93v-7.87Z" transform="translate(-162.93 -323.84)"/>
      </g>
    </g>
  </g>
</svg>
