<svg id="Layer_1" data-name="Layer 1" xmlns="http://www.w3.org/2000/svg" xmlns:xlink="http://www.w3.org/1999/xlink" viewBox="0 0 279 283.61">
  <defs>
    <style>
      .cls-1 {
        fill: none;
      }

      .cls-2 {
        fill: #fff;
      }

      .cls-3 {
        clip-path: url(#clip-path);
      }

      .cls-4 {
        fill: #dbd9dc;
      }

      .cls-5 {
        fill: #5f5461;
      }

      .cls-6 {
        fill: #4c404f;
      }

      .cls-7 {
        fill: #f9d7a5;
      }

      .cls-8 {
        fill: #f1c891;
      }

      .cls-9 {
        fill: #af876e;
      }

      .cls-10 {
        fill: #a07b64;
      }

      .cls-11 {
        fill: #ffe1b4;
      }

      .cls-12 {
        fill: #edebec;
      }
    </style>
    <clipPath id="clip-path" transform="translate(-171 -261)">
      <circle class="cls-1" cx="310.5" cy="400.5" r="139.5"/>
    </clipPath>
  </defs>
  <circle class="cls-2" cx="139.5" cy="139.5" r="139.5"/>
  <g class="cls-3">
    <g>
      <path class="cls-4" d="M395.24,477.87l-30.58-12H256.14l-30.58,12a29.61,29.61,0,0,0-18.74,28.72l3.71,23.94a9.88,9.88,0,0,0,9.86,9.47h180a9.86,9.86,0,0,0,9.85-9.47L414,506.59A29.61,29.61,0,0,0,395.24,477.87Z" transform="translate(-171 -261)"/>
      <polygon class="cls-5" points="132.2 239.22 129.88 279 148.9 278.68 146.6 239.22 132.2 239.22"/>
      <path class="cls-6" d="M315.33,505.15h-9.86a4.94,4.94,0,0,1-4.94-4.94V485.42h19.74v14.79A4.94,4.94,0,0,1,315.33,505.15Z" transform="translate(-171 -261)"/>
      <rect class="cls-7" x="104.87" y="165.22" width="69.06" height="59.2"/>
      <path class="cls-8" d="M275.87,444.64a58.91,58.91,0,0,0,69.06,0V426.22H275.87Z" transform="translate(-171 -261)"/>
      <path class="cls-9" d="M310.4,303.05c-24.63,1.33-38.64,14.8-38.64,14.8s-20.56,0-20.56,24.66c0,19.73,4.94,39.31,4.94,39.31H369.6C379.46,327.56,356,300.58,310.4,303.05Z" transform="translate(-171 -261)"/>
      <path class="cls-10" d="M280.8,361.46c-18.12-22.65-9-43.61-9-43.61s-20.56,0-20.56,24.66c0,19.73,4.94,39.31,4.94,39.31H280.8V361.46Z" transform="translate(-171 -261)"/>
      <path class="cls-11" d="M364.66,376.89h-4.93L353.23,365a5,5,0,0,0-5.27-2.44c-32.48,5.94-53.84-1.61-61.93-5.39a4.85,4.85,0,0,0-6,1.56,103.81,103.81,0,0,1-13.81,15.51,9.86,9.86,0,0,1-6.7,2.63H256a9.68,9.68,0,0,0-1.66.18c-4.8.92-8,5.51-8,10.4v3.58c0,4.72,3,9.17,7.61,10.24a9.76,9.76,0,0,0,3,.23,4.82,4.82,0,0,1,5,4,49.27,49.27,0,0,0,96.94,0,4.8,4.8,0,0,1,4.78-4h1a9.86,9.86,0,0,0,9.87-9.86v-4.94A9.87,9.87,0,0,0,364.66,376.89Z" transform="translate(-171 -261)"/>
      <path class="cls-7" d="M280.8,396.62V358a4.54,4.54,0,0,0-.77.75,104.41,104.41,0,0,1-13.8,15.51,9.9,9.9,0,0,1-6.71,2.63H256a9.46,9.46,0,0,0-1.65.18c-4.81.92-8,5.51-8,10.4v3.58c0,4.72,3,9.17,7.61,10.24a9.76,9.76,0,0,0,3,.23,4.82,4.82,0,0,1,5,4A49.28,49.28,0,0,0,310.4,446a50,50,0,0,0,9.78-1A49.36,49.36,0,0,1,280.8,396.62Z" transform="translate(-171 -261)"/>
      <path class="cls-12" d="M310.4,485.57l-36-31.49a4.94,4.94,0,0,0-6.74.22l-11.53,11.54,22.92,34.38a9.86,9.86,0,0,0,15.18,1.51Z" transform="translate(-171 -261)"/>
      <path class="cls-12" d="M310.4,485.57l36-31.49a4.94,4.94,0,0,1,6.74.22l11.53,11.54-22.92,34.38a9.87,9.87,0,0,1-15.19,1.51Z" transform="translate(-171 -261)"/>
      <path class="cls-12" d="M232.67,511.43,211.21,490a29.47,29.47,0,0,0-4.39,16.62l3.71,23.94a9.88,9.88,0,0,0,9.86,9.47h21v-7.64A29.6,29.6,0,0,0,232.67,511.43Z" transform="translate(-171 -261)"/>
      <path class="cls-12" d="M388.13,511.43,409.59,490A29.47,29.47,0,0,1,414,506.59l-3.72,23.94a9.86,9.86,0,0,1-9.85,9.47h-21v-7.64A29.6,29.6,0,0,1,388.13,511.43Z" transform="translate(-171 -261)"/>
      <path class="cls-12" d="M261.07,544.61h24.66a4.94,4.94,0,0,0,4.94-4.93v-4.93a4.94,4.94,0,0,0-4.94-4.94H261.07a4.93,4.93,0,0,0-4.93,4.94v4.93A4.93,4.93,0,0,0,261.07,544.61Z" transform="translate(-171 -261)"/>
    </g>
  </g>
</svg>
