<svg id="Layer_1" data-name="Layer 1" xmlns="http://www.w3.org/2000/svg" xmlns:xlink="http://www.w3.org/1999/xlink" viewBox="0 0 280.77 281.38">
  <defs>
    <style>
      .cls-1 {
        fill: none;
      }

      .cls-2 {
        fill: #fff;
      }

      .cls-3 {
        clip-path: url(#clip-path);
      }

      .cls-4 {
        fill: #eceaec;
      }

      .cls-5 {
        fill: #accbfa;
      }

      .cls-6 {
        fill: #93b2e5;
      }

      .cls-7 {
        fill: #f5c465;
      }

      .cls-8 {
        fill: #d9ab7d;
      }

      .cls-9 {
        fill: #c99c75;
      }

      .cls-10 {
        fill: #ebba85;
      }

      .cls-11 {
        fill: #f7d275;
      }

      .cls-12 {
        fill: #dad8db;
      }

      .cls-13 {
        fill: #f9e18a;
      }
    </style>
    <clipPath id="clip-path" transform="translate(-194.12 -211.62)">
      <circle class="cls-1" cx="334.5" cy="352" r="140.38"/>
    </clipPath>
  </defs>
  <circle class="cls-2" cx="140.38" cy="140.38" r="140.38"/>
  <g class="cls-3">
    <g>
      <path class="cls-4" d="M407.72,434.16l-39.43-13.92H302.1l-39.43,13.92a22.91,22.91,0,0,0-15.28,21.6v25.79A11.46,11.46,0,0,0,258.85,493h152.7A11.45,11.45,0,0,0,423,481.55V455.76A22.9,22.9,0,0,0,407.72,434.16Z" transform="translate(-194.12 -211.62)"/>
      <rect class="cls-5" x="121.99" y="208.85" width="38.18" height="72.53"/>
      <path class="cls-6" d="M316.11,436.65a30.46,30.46,0,0,0,38.17,0V420.47H316.11Z" transform="translate(-194.12 -211.62)"/>
      <path class="cls-7" d="M403.86,375.47c-1.89-4.78-3.77-12.37-3.77-23.72V321.21a64.9,64.9,0,1,0-129.79,0v30.54c0,11.35-1.87,18.94-3.77,23.73a7.56,7.56,0,0,0,4.67,9.89,253.48,253.48,0,0,0,41.09,10.28H358.1a253.48,253.48,0,0,0,41.09-10.28A7.57,7.57,0,0,0,403.86,375.47Z" transform="translate(-194.12 -211.62)"/>
      <path class="cls-8" d="M335.2,435.74h0a22.91,22.91,0,0,1-22.91-22.91V386.11H358.1v26.72A22.91,22.91,0,0,1,335.2,435.74Z" transform="translate(-194.12 -211.62)"/>
      <path class="cls-9" d="M312.29,400.38a56.83,56.83,0,0,0,45.81,0V386.11H312.29v14.27Z" transform="translate(-194.12 -211.62)"/>
      <path class="cls-10" d="M335.2,397.56h0a49.63,49.63,0,0,1-49.63-49.63V290.67h99.25v57.26A49.63,49.63,0,0,1,335.2,397.56Z" transform="translate(-194.12 -211.62)"/>
      <path class="cls-8" d="M317.91,306.47a3.56,3.56,0,0,1,2.23-.78,3.71,3.71,0,0,1,2.24.75c10.28,7.68,31.14,20.54,62.44,27.4V290.67H285.57v57.26a49.28,49.28,0,0,0,57.26,49,49.59,49.59,0,0,1-42-49V326.41A15.28,15.28,0,0,1,308,313.53,121,121,0,0,0,317.91,306.47Z" transform="translate(-194.12 -211.62)"/>
      <g>
        <path class="cls-5" d="M403.91,468.19h-5.72v-5.73a3.82,3.82,0,1,0-7.64,0v5.73h-5.73a3.82,3.82,0,0,0,0,7.63h5.73v5.73a3.82,3.82,0,0,0,7.64,0v-5.73h5.72a3.82,3.82,0,1,0,0-7.63Z" transform="translate(-194.12 -211.62)"/>
        <path class="cls-5" d="M300.84,493H270.3a3.82,3.82,0,0,1-3.82-3.82V473.91a3.82,3.82,0,0,1,3.82-3.82h30.54a3.82,3.82,0,0,1,3.82,3.82v15.27A3.82,3.82,0,0,1,300.84,493Z" transform="translate(-194.12 -211.62)"/>
      </g>
      <path class="cls-2" d="M285.57,477.73a3.82,3.82,0,0,1-3.82-3.82V462.46a3.82,3.82,0,0,1,7.64,0v11.45A3.82,3.82,0,0,1,285.57,477.73Z" transform="translate(-194.12 -211.62)"/>
      <path class="cls-11" d="M326.94,300.32c11.14,8.31,35.52,23.15,73.15,28.53v-5.94c0-36.38-29.76-67.27-66.13-66.59a64.9,64.9,0,0,0-63.66,64.89v2.44c8.14-3.07,27.82-11.2,42.85-23.16A11.3,11.3,0,0,1,326.94,300.32Z" transform="translate(-194.12 -211.62)"/>
      <g>
        <path class="cls-12" d="M375,413.82l-16.91-8L335.2,493h19.08l21.12-45.75a7.64,7.64,0,0,0-.58-7.43l-5.27-7.9L377,422A5.4,5.4,0,0,0,375,413.82Z" transform="translate(-194.12 -211.62)"/>
        <path class="cls-12" d="M295.38,413.82l16.91-8L335.2,493H316.11L295,447.25a7.64,7.64,0,0,1,.58-7.43l5.27-7.9-7.47-10A5.4,5.4,0,0,1,295.38,413.82Z" transform="translate(-194.12 -211.62)"/>
      </g>
      <path class="cls-13" d="M400,318.25a64.78,64.78,0,0,0-86.48-58.18C328.59,279.58,357.32,308.4,400,318.25Z" transform="translate(-194.12 -211.62)"/>
      <path class="cls-6" d="M300.84,485.36H270.3a3.81,3.81,0,0,1-3.82-3.81v7.63A3.82,3.82,0,0,0,270.3,493h30.54a3.82,3.82,0,0,0,3.82-3.82v-7.63A3.81,3.81,0,0,1,300.84,485.36Z" transform="translate(-194.12 -211.62)"/>
    </g>
  </g>
</svg>
