<svg id="Layer_1" data-name="Layer 1" xmlns="http://www.w3.org/2000/svg" xmlns:xlink="http://www.w3.org/1999/xlink" viewBox="0 0 280.77 282.01">
  <defs>
    <style>
      .cls-1 {
        fill: none;
      }

      .cls-2 {
        fill: #fff;
      }

      .cls-3 {
        clip-path: url(#clip-path);
      }

      .cls-4 {
        fill: #d56c71;
      }

      .cls-5 {
        fill: #58424b;
      }

      .cls-6 {
        fill: #4c3540;
      }

      .cls-7 {
        fill: #ac8869;
      }

      .cls-8 {
        fill: #8f6f54;
      }

      .cls-9 {
        fill: #bb9877;
      }

      .cls-10 {
        fill: #ee8689;
      }
    </style>
    <clipPath id="clip-path" transform="translate(-159.68 -196.65)">
      <circle class="cls-1" cx="300.07" cy="337.04" r="140.38"/>
    </clipPath>
  </defs>
  <circle class="cls-2" cx="140.38" cy="140.38" r="140.38"/>
  <g class="cls-3">
    <g>
      <path class="cls-4" d="M369.07,429l-26.33-11.5h-87.9L228.51,429A29.29,29.29,0,0,0,211,457.06l2.68,11a9.76,9.76,0,0,0,9.75,9.35H374.18a9.76,9.76,0,0,0,9.75-9.35l2.69-11A29.28,29.28,0,0,0,369.07,429Z" transform="translate(-159.68 -196.65)"/>
      <path class="cls-5" d="M362.36,330.23V312.47c0-34.23-26.3-63.68-60.49-65.29a63.57,63.57,0,0,0-66.65,63.49v19.56c0,32.91-5.47,52.15-8.23,59.76a4.85,4.85,0,0,0,2.3,5.92c9.74,5.18,36.29,18.44,59.72,22.34h19.56c23.43-3.9,50-17.16,59.73-22.34a4.84,4.84,0,0,0,2.29-5.92C367.83,382.38,362.36,363.14,362.36,330.23Z" transform="translate(-159.68 -196.65)"/>
      <path class="cls-6" d="M235.22,310.67v19.56c0,32.91-5.47,52.15-8.22,59.76a4.85,4.85,0,0,0,2.31,5.93c9.1,4.83,32.71,16.63,54.81,21.38V320.46l-9.78-9.78c-16.27-16.27-17.37-36.82-16.29-48.78A63.39,63.39,0,0,0,235.22,310.67Z" transform="translate(-159.68 -196.65)"/>
      <rect class="cls-7" x="114.71" y="186.67" width="48.81" height="48.81"/>
      <path class="cls-8" d="M274.39,397.5a58.42,58.42,0,0,0,48.8,0V383.32h-48.8V397.5Z" transform="translate(-159.68 -196.65)"/>
      <path class="cls-9" d="M345.11,360.33a44.3,44.3,0,0,0,2.08-12.24c.72-28.15-38.7-21.56-71.08-42.86a4.93,4.93,0,0,0-6.8,1.2A102,102,0,0,1,255,322.76a9.73,9.73,0,0,1-6.63,2.58h-3.52a9.22,9.22,0,0,0-1.64.17c-4.76.92-8,5.48-8,10.32v3.54c0,4.68,3,9.09,7.55,10.15a9.57,9.57,0,0,0,3,.23,4.76,4.76,0,0,1,5,4,48.81,48.81,0,0,0,93.16,9.83C344.26,362.71,345,360.54,345.11,360.33Z" transform="translate(-159.68 -196.65)"/>
      <path class="cls-7" d="M269.45,344.91V306.25A102.16,102.16,0,0,1,255,322.76a9.74,9.74,0,0,1-6.63,2.59h-3.52a9.32,9.32,0,0,0-1.64.17c-4.76.92-8,5.47-8,10.32v3.54c0,4.68,3,9.09,7.55,10.15a9.57,9.57,0,0,0,3,.23,4.76,4.76,0,0,1,5,4,48.76,48.76,0,0,0,57.75,39.07A48.92,48.92,0,0,1,269.45,344.91Z" transform="translate(-159.68 -196.65)"/>
      <g>
        <path class="cls-10" d="M237.19,456.79l-17.84-21.4A29.21,29.21,0,0,0,211,457.06l2.68,11a9.76,9.76,0,0,0,9.75,9.35h21.71v1.24A34.2,34.2,0,0,0,237.19,456.79Z" transform="translate(-159.68 -196.65)"/>
        <path class="cls-10" d="M360.4,456.79l17.83-21.4a29.18,29.18,0,0,1,8.39,21.67l-2.69,11a9.76,9.76,0,0,1-9.75,9.35h-21.7v1.24A34.15,34.15,0,0,1,360.4,456.79Z" transform="translate(-159.68 -196.65)"/>
        <path class="cls-10" d="M331.53,406.29a4.9,4.9,0,0,0-6.91,0L301,429.89a3.18,3.18,0,0,1-4.48,0L273,406.29a4.89,4.89,0,0,0-6.9,0l-11.19,11.19,18.06,29.32a4.88,4.88,0,0,0,7.32,1.15l10.82-9.24a1.72,1.72,0,0,1,2.84,1.31v37.4h9.76V440a1.72,1.72,0,0,1,2.84-1.31L317.34,448a4.88,4.88,0,0,0,7.32-1.15l18.06-29.32Z" transform="translate(-159.68 -196.65)"/>
      </g>
    </g>
  </g>
</svg>
