<svg id="Layer_1" data-name="Layer 1" xmlns="http://www.w3.org/2000/svg" xmlns:xlink="http://www.w3.org/1999/xlink" viewBox="0 0 280.77 280.77">
  <defs>
    <style>
      .cls-1 {
        fill: none;
      }

      .cls-2 {
        fill: #fff;
      }

      .cls-3 {
        clip-path: url(#clip-path);
      }

      .cls-4 {
        fill: #987055;
      }

      .cls-5 {
        fill: #d9ab7d;
      }

      .cls-6 {
        fill: #f0d298;
      }

      .cls-7 {
        fill: #f9e1a7;
      }

      .cls-8 {
        fill: #c99c75;
      }

      .cls-9 {
        fill: #ebba85;
      }

      .cls-10 {
        fill: #61515a;
      }

      .cls-11 {
        fill: #ad8064;
      }

      .cls-12 {
        fill: #574750;
      }
    </style>
    <clipPath id="clip-path" transform="translate(-159.68 -196.65)">
      <circle class="cls-1" cx="300.07" cy="337.04" r="140.38"/>
    </clipPath>
  </defs>
  <circle class="cls-2" cx="140.38" cy="140.38" r="140.38"/>
  <g class="cls-3">
    <g>
      <path class="cls-4" d="M298.62,435.25c33,0,57.15-11.1,67.48-16.88a8.06,8.06,0,0,0,3.89-9.12c-6.43-24.62-6.43-61.78-6.43-99.81h0a64.94,64.94,0,0,0-64.94-64.94h0a64.94,64.94,0,0,0-64.93,64.94h0c0,38,0,75.19-6.43,99.81a8.07,8.07,0,0,0,3.88,9.12C241.48,424.15,265.61,435.25,298.62,435.25Z" transform="translate(-159.68 -196.65)"/>
      <path class="cls-5" d="M378,436.78l-50.35-23.42a8.53,8.53,0,0,1-4.66-7.61V378.43h-48.7v27.32a8.51,8.51,0,0,1-4.66,7.61l-50.35,23.7a24,24,0,0,0-14,21.76V465a12.18,12.18,0,0,0,12.18,12.18H379.79A12.18,12.18,0,0,0,392,465v-6.15A24.35,24.35,0,0,0,378,436.78Z" transform="translate(-159.68 -196.65)"/>
      <path class="cls-6" d="M378,437.06l-37.87-17.83L310.8,435.52l-9.21,27.62a3.13,3.13,0,0,1-5.93,0l-9.21-27.62-29.32-16.29-37.87,17.83a24.35,24.35,0,0,0-14,22v6.16a12.17,12.17,0,0,0,12.18,12.17H379.79A12.18,12.18,0,0,0,392,465.25v-6.16A24.34,24.34,0,0,0,378,437.06Z" transform="translate(-159.68 -196.65)"/>
      <g>
        <path class="cls-7" d="M268.94,411l17.51,24.51-15.92,12.74a4.06,4.06,0,0,1-6.34-1.75l-9.29-24.78a4,4,0,0,1,.93-4.29l6.94-6.94A4.05,4.05,0,0,1,268.94,411Z" transform="translate(-159.68 -196.65)"/>
        <path class="cls-7" d="M328.31,411,310.8,435.52l15.92,12.74a4.05,4.05,0,0,0,6.33-1.75l9.3-24.78a4.06,4.06,0,0,0-.93-4.29l-6.94-6.94A4.05,4.05,0,0,0,328.31,411Z" transform="translate(-159.68 -196.65)"/>
        <path class="cls-7" d="M294.56,477.42h8.12V459.87l-1.09,3.27a3.13,3.13,0,0,1-5.93,0l-1.1-3.27Z" transform="translate(-159.68 -196.65)"/>
        <path class="cls-7" d="M235.86,460.36l-20.75-20.75a24.61,24.61,0,0,0-5.62,5.86l20.63,20.63a12.27,12.27,0,0,1,3.57,8.61v2.71h8.12v-2.71A20.18,20.18,0,0,0,235.86,460.36Z" transform="translate(-159.68 -196.65)"/>
        <path class="cls-7" d="M355.58,474.71v2.71h8.11v-2.71a12.27,12.27,0,0,1,3.57-8.61l20.63-20.63a24.61,24.61,0,0,0-5.62-5.86l-20.75,20.75A20.17,20.17,0,0,0,355.58,474.71Z" transform="translate(-159.68 -196.65)"/>
      </g>
      <path class="cls-8" d="M274.27,393.16a56.1,56.1,0,0,0,48.7,0V378.43h-48.7v14.73Z" transform="translate(-159.68 -196.65)"/>
      <path class="cls-9" d="M274.21,289.15a15.74,15.74,0,0,0-8.35,2.31c-6,3.72-15.94,12.17-15.94,27.11v21.72c0,26.81,21,49.82,47.79,50.31a48.7,48.7,0,0,0,49.61-48.69V289.15Z" transform="translate(-159.68 -196.65)"/>
      <path class="cls-5" d="M318,304c13.25,4.72,23.06,8.5,29.31,14V289.15h-62.7C295.49,296,307.39,300.21,318,304Z" transform="translate(-159.68 -196.65)"/>
      <g>
        <rect class="cls-6" x="106.47" y="137.14" width="20.29" height="8.12"/>
        <rect class="cls-6" x="151.11" y="137.14" width="20.29" height="8.12"/>
      </g>
      <path class="cls-5" d="M264.3,341.9V292.5c-6,4.14-14.38,12.36-14.38,26.07V341.9A48.35,48.35,0,0,0,305.81,390,48.68,48.68,0,0,1,264.3,341.9Z" transform="translate(-159.68 -196.65)"/>
      <path class="cls-10" d="M262.1,329.73H249.92a4.06,4.06,0,1,1,0-8.12H262.1a4.06,4.06,0,0,1,0,8.12Z" transform="translate(-159.68 -196.65)"/>
      <g>
        <path class="cls-10" d="M347.32,329.73H335.15a4.06,4.06,0,0,1,0-8.12h12.17a4.06,4.06,0,0,1,0,8.12Z" transform="translate(-159.68 -196.65)"/>
        <path class="cls-10" d="M307,336a4.07,4.07,0,0,1-3.89-2.91,4.62,4.62,0,0,0-8.89,0,4.06,4.06,0,0,1-7.79-2.3,12.73,12.73,0,0,1,24.46,0,4,4,0,0,1-2.74,5A4.16,4.16,0,0,1,307,336Z" transform="translate(-159.68 -196.65)"/>
      </g>
      <path class="cls-11" d="M363.56,309.44a64.94,64.94,0,0,0-64.94-64.94h0a64.48,64.48,0,0,0-34.28,9.87c23.39,53.51,99.22,32.48,99.22,83.48l.1-.08C363.56,328.5,363.56,319,363.56,309.44Z" transform="translate(-159.68 -196.65)"/>
      <g>
        <path class="cls-12" d="M276,350c-9.9,0-18-7.73-18-17.24v-3a12.42,12.42,0,0,1,12.61-12.18H282a12.77,12.77,0,0,1,9.8,4.51,11.9,11.9,0,0,1,2.64,9.7l-.69,3.89A17.7,17.7,0,0,1,276,350Zm-5.35-24.35a4.29,4.29,0,0,0-4.49,4.06v3c0,5,4.41,9.12,9.84,9.12a9.62,9.62,0,0,0,9.71-7.66l.68-3.88a3.73,3.73,0,0,0-.86-3.08,4.64,4.64,0,0,0-3.58-1.61Z" transform="translate(-159.68 -196.65)"/>
        <path class="cls-12" d="M321.25,350a17.71,17.71,0,0,1-17.71-14.37l-.68-3.89a11.9,11.9,0,0,1,2.64-9.7,12.77,12.77,0,0,1,9.8-4.51h11.29a12.42,12.42,0,0,1,12.62,12.18v3C339.21,342.29,331.15,350,321.25,350Zm-5.95-24.35a4.67,4.67,0,0,0-3.59,1.61,3.77,3.77,0,0,0-.85,3.08l.68,3.89a9.61,9.61,0,0,0,9.71,7.65c5.42,0,9.84-4.09,9.84-9.12v-3a4.3,4.3,0,0,0-4.5-4.06Z" transform="translate(-159.68 -196.65)"/>
      </g>
    </g>
  </g>
</svg>
