<svg id="Layer_1" data-name="Layer 1" xmlns="http://www.w3.org/2000/svg" xmlns:xlink="http://www.w3.org/1999/xlink" viewBox="0 0 280.77 282.03">
  <defs>
    <style>
      .cls-1 {
        fill: none;
      }

      .cls-2 {
        fill: #fff;
      }

      .cls-3 {
        clip-path: url(#clip-path);
      }

      .cls-4 {
        fill: #574750;
      }

      .cls-5 {
        fill: #ad8064;
      }

      .cls-6 {
        fill: #accbfa;
      }

      .cls-7 {
        fill: #93b2e5;
      }

      .cls-8 {
        fill: #61515a;
      }

      .cls-9 {
        fill: #987055;
      }

      .cls-10 {
        fill: #c39373;
      }
    </style>
    <clipPath id="clip-path" transform="translate(-140.12 -213.62)">
      <circle class="cls-1" cx="280.5" cy="354" r="140.38"/>
    </clipPath>
  </defs>
  <circle class="cls-2" cx="140.38" cy="140.38" r="140.38"/>
  <g class="cls-3">
    <g>
      <path class="cls-4" d="M224.11,342.65H337.58l4.84-31.48A51,51,0,0,0,292,252.42H269.68a51,51,0,0,0-50.41,58.75Z" transform="translate(-140.12 -213.62)"/>
      <path class="cls-5" d="M358.1,427.91l-41.34-12.16a11.77,11.77,0,0,1-8.45-11.29V385.8H253.39v18.66a11.77,11.77,0,0,1-8.45,11.29l-41.35,12.16a23.54,23.54,0,0,0-16.9,22.58v33.39a11.77,11.77,0,0,0,11.77,11.77H363.23A11.77,11.77,0,0,0,375,483.88V450.49A23.54,23.54,0,0,0,358.1,427.91Z" transform="translate(-140.12 -213.62)"/>
      <path class="cls-4" d="M358.1,427.91l-41.34-12.16a33.92,33.92,0,0,0,3.32,1.44L280.84,429l-39.23-11.77a35.19,35.19,0,0,0,3.33-1.44l-41.35,12.16a23.54,23.54,0,0,0-16.9,22.58v33.39a11.77,11.77,0,0,0,11.77,11.77H363.23A11.77,11.77,0,0,0,375,483.88V450.49A23.54,23.54,0,0,0,358.1,427.91Z" transform="translate(-140.12 -213.62)"/>
      <path class="cls-6" d="M318.73,423.69,314.05,419l-33.2,6-33.21-6L243,423.69a31.4,31.4,0,0,0-9.19,22.19v49.77h94.15V445.88A31.36,31.36,0,0,0,318.73,423.69Z" transform="translate(-140.12 -213.62)"/>
      <path class="cls-7" d="M318.73,423.69,314.05,419l-33.2,6-33.21-6L243,423.69a31.48,31.48,0,0,0-4.89,6.4l14.49,16.57a11.8,11.8,0,0,0,8.86,4,11.69,11.69,0,0,0,8.32-3.45l11.11-11.1,11.1,11.1a11.77,11.77,0,0,0,17.18-.57l14.49-16.57A31.13,31.13,0,0,0,318.73,423.69Z" transform="translate(-140.12 -213.62)"/>
      <polygon class="cls-4" points="135.06 231.03 128.96 282.03 152.5 282.03 146.4 231.03 135.06 231.03"/>
      <path class="cls-8" d="M285.86,448.57h-10a3.92,3.92,0,0,1-3.72-2.68l-7-20.86h31.39l-7,20.86A3.94,3.94,0,0,1,285.86,448.57Z" transform="translate(-140.12 -213.62)"/>
      <path class="cls-9" d="M253.39,394.56a57.8,57.8,0,0,0,54.92,0V385.8H253.39Z" transform="translate(-140.12 -213.62)"/>
      <g>
        <path class="cls-6" d="M250.76,408.32l-10.33,12.55,18,20.62a3.92,3.92,0,0,0,5.73.19L280.85,425Z" transform="translate(-140.12 -213.62)"/>
        <path class="cls-6" d="M310.93,408.32l10.34,12.55-18,20.62a3.91,3.91,0,0,1-5.72.19L280.85,425Z" transform="translate(-140.12 -213.62)"/>
      </g>
      <g>
        <path class="cls-8" d="M214.15,495.65l-6.91-27.18a7.87,7.87,0,0,1,2.11-7.25L222,448.57l-5.82-8.73a8,8,0,0,1-.88-7c9.35-28.12,38.08-35.3,38.08-35.3v7.57A19.61,19.61,0,0,1,247.64,419L243,423.69a31.4,31.4,0,0,0-9.19,22.19v49.77" transform="translate(-140.12 -213.62)"/>
        <path class="cls-8" d="M347.54,495.65l6.91-27.18a7.84,7.84,0,0,0-2.11-7.25l-12.65-12.65,5.82-8.73a8,8,0,0,0,.88-7c-9.35-28.12-38.08-35.3-38.08-35.3v7.57A19.61,19.61,0,0,0,314.05,419l4.68,4.68a31.36,31.36,0,0,1,9.19,22.19v49.77" transform="translate(-140.12 -213.62)"/>
      </g>
      <path class="cls-10" d="M333.46,327h-.17a7.45,7.45,0,0,1-7.27-9.08h0a21.56,21.56,0,0,0-21-26.23H256.72a21.55,21.55,0,0,0-21,26.23h0A7.46,7.46,0,0,1,228.4,327h-.17a10,10,0,0,0-9.8,7.14,9.84,9.84,0,0,0,9.45,12.47H230a51,51,0,0,0,101.61,0h2.16a9.84,9.84,0,0,0,9.45-12.47A10,10,0,0,0,333.46,327Z" transform="translate(-140.12 -213.62)"/>
      <path class="cls-5" d="M245.54,342.65V319.11a19.62,19.62,0,0,1,19.61-19.62h31.39a7.84,7.84,0,0,0,7.84-7.84H256.72a21.56,21.56,0,0,0-21,26.26,7.44,7.44,0,0,1-7.28,9h-.17a10,10,0,0,0-9.8,7.14,9.84,9.84,0,0,0,9.45,12.47H230A50.65,50.65,0,0,0,288.72,393,51,51,0,0,1,245.54,342.65Z" transform="translate(-140.12 -213.62)"/>
      <path class="cls-8" d="M292,252.42H269.68A51.24,51.24,0,0,0,257.31,254v2.37a27.45,27.45,0,0,0,27.46,27.46h54.34A51,51,0,0,0,292,252.42Z" transform="translate(-140.12 -213.62)"/>
    </g>
  </g>
</svg>
