<svg id="Layer_1" data-name="Layer 1" xmlns="http://www.w3.org/2000/svg" xmlns:xlink="http://www.w3.org/1999/xlink" viewBox="0 0 280.77 281.47">
  <defs>
    <style>
      .cls-1 {
        fill: none;
      }

      .cls-2 {
        fill: #fff;
      }

      .cls-3 {
        clip-path: url(#clip-path);
      }

      .cls-4 {
        fill: #f0d298;
      }

      .cls-5 {
        fill: #e8c48a;
      }

      .cls-6 {
        fill: #ad8064;
      }

      .cls-7 {
        fill: #f9e1a7;
      }

      .cls-8 {
        fill: #ee885c;
      }

      .cls-9 {
        fill: #987055;
      }

      .cls-10 {
        fill: #574750;
      }

      .cls-11 {
        fill: #cd7950;
      }

      .cls-12 {
        fill: #f09a6e;
      }
    </style>
    <clipPath id="clip-path" transform="translate(-142.12 -216.62)">
      <circle class="cls-1" cx="282.5" cy="357" r="140.38"/>
    </clipPath>
  </defs>
  <circle class="cls-2" cx="140.38" cy="140.38" r="140.38"/>
  <g class="cls-3">
    <g>
      <path class="cls-4" d="M358.77,440l-40.12-11.8a11.42,11.42,0,0,1-8.2-11V387.7H257.16v29.52a11.42,11.42,0,0,1-8.2,11L208.85,440a22.84,22.84,0,0,0-16.4,21.91v24.78a11.42,11.42,0,0,0,11.42,11.42H363.74a11.42,11.42,0,0,0,11.42-11.42V461.89A22.83,22.83,0,0,0,358.77,440Z" transform="translate(-142.12 -216.62)"/>
      <path class="cls-5" d="M283.81,422a49.18,49.18,0,0,0,26.64-7.85V387.7H257.16v26.41A49.19,49.19,0,0,0,283.81,422Z" transform="translate(-142.12 -216.62)"/>
      <path class="cls-6" d="M358.77,440l-40.12-11.8c-.38-.12-.74-.28-1.1-.43l-33.74,5.63-33.75-5.63c-.36.15-.71.31-1.1.43L208.85,440a22.84,22.84,0,0,0-16.4,21.91v24.78a11.42,11.42,0,0,0,11.42,11.42H363.74a11.42,11.42,0,0,0,11.42-11.42V461.89A22.83,22.83,0,0,0,358.77,440Z" transform="translate(-142.12 -216.62)"/>
      <path class="cls-7" d="M335.19,334.41h-1.9V292.54h-99v41.87h-1.9a9.52,9.52,0,1,0,0,19h2.09a49.44,49.44,0,0,0,98.59,0h2.09a9.52,9.52,0,1,0,0-19Z" transform="translate(-142.12 -216.62)"/>
      <path class="cls-4" d="M234.32,292.54v41.87H233c-5,0-9.51,3.58-10,8.54a9.52,9.52,0,0,0,9.47,10.49h2.09a49.4,49.4,0,0,0,15,31.83V323a15.21,15.21,0,0,1,15.22-15.22h45.68a7.61,7.61,0,0,0,7.61-7.62v-7.61Z" transform="translate(-142.12 -216.62)"/>
      <path class="cls-8" d="M314.26,357.25H253.35a11.41,11.41,0,0,0-11.41,11.42v3.81a41.87,41.87,0,0,0,41.87,41.87h0a41.88,41.88,0,0,0,41.87-41.87v-3.81A11.42,11.42,0,0,0,314.26,357.25Z" transform="translate(-142.12 -216.62)"/>
      <path class="cls-8" d="M302.43,262.09H265.18a38.06,38.06,0,0,0-37.85,42.05l3.19,30.47,3.94-.07a7.6,7.6,0,0,0,7.47-7.61V307.77a7.62,7.62,0,0,1,7.62-7.62h68.51a7.62,7.62,0,0,1,7.62,7.62v19.16a7.6,7.6,0,0,0,7.47,7.61l4,.07,3.18-30.47A38.06,38.06,0,0,0,302.43,262.09Z" transform="translate(-142.12 -216.62)"/>
      <path class="cls-9" d="M236.34,435.12,248.27,456a11.41,11.41,0,0,0,17.34,3l18.2-15.59L302,459a11.42,11.42,0,0,0,17.35-3l11.93-20.88a11.56,11.56,0,0,0,1.13-2.9l-13.76-4a10.45,10.45,0,0,1-1.1-.43l-33.74,5.63-33.75-5.63c-.36.15-.71.31-1.1.43l-13.76,4A11.22,11.22,0,0,0,236.34,435.12Z" transform="translate(-142.12 -216.62)"/>
      <g>
        <path class="cls-6" d="M260.66,453.22l23.15-19.84L253,416.28a3.8,3.8,0,0,0-5.25,1.62l-4.92,9.85a3.78,3.78,0,0,0,.1,3.59l11.93,20.88A3.8,3.8,0,0,0,260.66,453.22Z" transform="translate(-142.12 -216.62)"/>
        <path class="cls-6" d="M307,453.22l-23.14-19.84,30.78-17.1a3.8,3.8,0,0,1,5.25,1.62l4.93,9.85a3.81,3.81,0,0,1-.1,3.59l-11.93,20.88A3.81,3.81,0,0,1,307,453.22Z" transform="translate(-142.12 -216.62)"/>
      </g>
      <g>
        <path class="cls-9" d="M224.13,464.06l-22.74-20.22a22.76,22.76,0,0,0-5.17,5.6l22.85,20.31a11.39,11.39,0,0,1,3.83,8.53v19.81h7.62V478.28A19,19,0,0,0,224.13,464.06Z" transform="translate(-142.12 -216.62)"/>
        <path class="cls-9" d="M343.49,464.06l22.74-20.22a22.91,22.91,0,0,1,5.16,5.6l-22.85,20.31a11.43,11.43,0,0,0-3.83,8.53v19.81H337.1V478.28A19,19,0,0,1,343.49,464.06Z" transform="translate(-142.12 -216.62)"/>
      </g>
      <g>
        <circle class="cls-10" cx="141.69" cy="247.22" r="3.81"/>
        <circle class="cls-10" cx="141.69" cy="270.06" r="3.81"/>
      </g>
      <path class="cls-11" d="M299,406.73a41.87,41.87,0,0,1-41.87-41.87v-7.61h-3.81a11.41,11.41,0,0,0-11.41,11.42v3.81a41.82,41.82,0,0,0,67.82,32.81A41.71,41.71,0,0,1,299,406.73Z" transform="translate(-142.12 -216.62)"/>
      <path class="cls-12" d="M302.43,262.09H265.18a38.49,38.49,0,0,0-8,.85v6.76A22.85,22.85,0,0,0,280,292.54h59.71A38.07,38.07,0,0,0,302.43,262.09Z" transform="translate(-142.12 -216.62)"/>
    </g>
  </g>
</svg>
