<svg id="Layer_1" data-name="Layer 1" xmlns="http://www.w3.org/2000/svg" xmlns:xlink="http://www.w3.org/1999/xlink" viewBox="0 0 280.77 280.77">
  <defs>
    <style>
      .cls-1 {
        fill: none;
      }

      .cls-2 {
        fill: #fff;
      }

      .cls-3 {
        clip-path: url(#clip-path);
      }

      .cls-4 {
        fill: #f0dcb8;
      }

      .cls-5 {
        fill: #e4c9a4;
      }

      .cls-6 {
        fill: #ccb499;
      }

      .cls-7 {
        fill: #ebba85;
      }

      .cls-8 {
        fill: #d9ab7d;
      }

      .cls-9 {
        fill: #574750;
      }

      .cls-10 {
        fill: #80747b;
      }

      .cls-11 {
        fill: #6b5b64;
      }
    </style>
    <clipPath id="clip-path" transform="translate(-161.12 -233.62)">
      <circle class="cls-1" cx="301.5" cy="374" r="140.38"/>
    </clipPath>
  </defs>
  <circle class="cls-2" cx="140.38" cy="140.38" r="140.38"/>
  <g class="cls-3">
    <g>
      <path class="cls-4" d="M376.09,463.34l-25.43-7.82a11.48,11.48,0,0,1-8.11-11V426.24a3.82,3.82,0,0,0-3.82-3.82H262.21a3.83,3.83,0,0,0-3.83,3.82v18.31a11.47,11.47,0,0,1-8.1,11l-25.43,7.82a23,23,0,0,0-16.2,21.94v17.48a11.47,11.47,0,0,0,11.47,11.48H380.81a11.48,11.48,0,0,0,11.48-11.48V485.28A23,23,0,0,0,376.09,463.34Z" transform="translate(-161.12 -233.62)"/>
      <path class="cls-5" d="M250.66,455.37c5.94,16.27,26,28.26,49.81,28.26s43.87-12,49.81-28.26a11.47,11.47,0,0,1-7.73-10.82V426.24a3.82,3.82,0,0,0-3.82-3.82H262.21a3.83,3.83,0,0,0-3.83,3.82v18.31A11.46,11.46,0,0,1,250.66,455.37Z" transform="translate(-161.12 -233.62)"/>
      <path class="cls-6" d="M338.73,422.42H262.21a3.78,3.78,0,0,0-2.79,1.25,49.68,49.68,0,0,0,82.1,0A3.78,3.78,0,0,0,338.73,422.42Z" transform="translate(-161.12 -233.62)"/>
      <path class="cls-7" d="M352.12,357.37h-1.91V319.11H250.73v38.26h-1.91a9.57,9.57,0,1,0,0,19.13h2.1a49.69,49.69,0,0,0,99.09,0h2.11a9.57,9.57,0,0,0,0-19.13Z" transform="translate(-161.12 -233.62)"/>
      <path class="cls-8" d="M331.08,322.94v-3.83H250.73v38.26h-1.58a9.79,9.79,0,0,0-9.55,7,9.59,9.59,0,0,0,9.22,12.16h2.1a49.35,49.35,0,0,0,57.22,45.27A49.7,49.7,0,0,1,266,372.68v-23a19.13,19.13,0,0,1,19.12-19.13h38.26A7.65,7.65,0,0,0,331.08,322.94Z" transform="translate(-161.12 -233.62)"/>
      <path class="cls-9" d="M273.69,285.5A38.25,38.25,0,0,0,243.45,327l3.23,30.65,3.95-.08a7.65,7.65,0,0,0,7.5-7.65V334.42a11.48,11.48,0,0,1,11.48-11.48H312Z" transform="translate(-161.12 -233.62)"/>
      <path class="cls-10" d="M331.08,380.33H269.86a11.48,11.48,0,0,0-11.48,11.48v3.82a42.09,42.09,0,0,0,42.09,42.09h0a42.08,42.08,0,0,0,42.08-42.09v-3.82A11.47,11.47,0,0,0,331.08,380.33Z" transform="translate(-161.12 -233.62)"/>
      <g>
        <path class="cls-11" d="M277.51,395.63v-3.82A11.48,11.48,0,0,1,289,380.33H269.86a11.48,11.48,0,0,0-11.48,11.48v3.82a42,42,0,0,0,51.65,41A42.09,42.09,0,0,1,277.51,395.63Z" transform="translate(-161.12 -233.62)"/>
        <path class="cls-11" d="M354,357.6,357.24,327a38.26,38.26,0,0,0-38.05-42.27H281.34c-9.81,0-21-1.4-27.65-5.39a2.15,2.15,0,0,0-3.21,1.88c0,11.29,5.36,41.77,61.47,41.77h19.13a11.47,11.47,0,0,1,11.47,11.48v15.45a7.65,7.65,0,0,0,7.51,7.65Z" transform="translate(-161.12 -233.62)"/>
      </g>
    </g>
  </g>
</svg>
