<svg id="Layer_1" data-name="Layer 1" xmlns="http://www.w3.org/2000/svg" xmlns:xlink="http://www.w3.org/1999/xlink" viewBox="0 0 280.77 281.58">
  <defs>
    <style>
      .cls-1 {
        fill: none;
      }

      .cls-2 {
        fill: #fff;
      }

      .cls-3 {
        clip-path: url(#clip-path);
      }

      .cls-4 {
        fill: #574750;
      }

      .cls-5 {
        fill: #6b5b64;
      }

      .cls-6 {
        fill: #dad8db;
      }

      .cls-7 {
        fill: #ad8064;
      }

      .cls-8 {
        fill: #c7c5c9;
      }

      .cls-9 {
        fill: #f9e18a;
      }

      .cls-10 {
        fill: #987055;
      }

      .cls-11 {
        fill: #c39373;
      }

      .cls-12 {
        fill: #f7d275;
      }
    </style>
    <clipPath id="clip-path" transform="translate(-159.68 -196.65)">
      <circle class="cls-1" cx="300.07" cy="337.04" r="140.38"/>
    </clipPath>
  </defs>
  <circle class="cls-2" cx="140.38" cy="140.38" r="140.38"/>
  <g class="cls-3">
    <g>
      <path class="cls-4" d="M373,346.05c1.76-6.59,10.16-12.53,10.16-19.66s-8.4-13.08-10.16-19.66c-1.82-6.81,2.44-16.15-1-22.11s-13.75-7-18.65-11.92-5.87-15.15-11.92-18.65-15.3.81-22.11-1c-6.58-1.75-12.52-10.16-19.66-10.16S286.62,251.28,280,253c-6.81,1.82-16.14-2.43-22.1,1s-7,13.74-11.92,18.65-15.15,5.87-18.65,11.92.8,15.3-1,22.11c-1.76,6.58-10.16,12.52-10.16,19.66s8.4,13.07,10.16,19.65c1.82,6.82-2.43,16.15,1,22.11s13.74,7,18.64,11.92,5.87,15.15,11.92,18.65c5.1,2.95,12.66.27,19,.57h45.55c6.34-.3,13.89,2.38,19-.57,6-3.5,7-13.74,11.91-18.65s15.15-5.87,18.65-11.92S371.22,352.86,373,346.05Z" transform="translate(-159.68 -196.65)"/>
      <path class="cls-5" d="M383.2,326.39c0-7.14-8.4-13.08-10.16-19.66-1.82-6.81,2.44-16.15-1-22.11s-13.75-7-18.65-11.92-5.87-15.15-11.92-18.65-15.3.81-22.11-1c-6.58-1.75-12.52-10.16-19.66-10.16S286.62,251.28,280,253c-4.21,1.13-9.38-.06-14.13-.32-.22,3-.37,6.06-.37,9.14A121.49,121.49,0,0,0,354.74,379c5.24-4,14.07-5.26,17.28-10.81,3.45-6-.8-15.29,1-22.1C374.8,339.46,383.2,333.52,383.2,326.39Z" transform="translate(-159.68 -196.65)"/>
      <path class="cls-6" d="M371.8,434.89l-39.2-13.84a15.18,15.18,0,0,1-10.13-14.32v-12H276.91v12a15.18,15.18,0,0,1-10.13,14.32l-39.2,13.84a22.77,22.77,0,0,0-15.2,21.48v10.47a11.39,11.39,0,0,0,11.39,11.39H375.61A11.39,11.39,0,0,0,387,466.84V456.37A22.77,22.77,0,0,0,371.8,434.89Z" transform="translate(-159.68 -196.65)"/>
      <path class="cls-7" d="M322.47,406.73v-12H276.91v12a15.18,15.18,0,0,1-10.13,14.32l32.91,15.42,32.91-15.42A15.18,15.18,0,0,1,322.47,406.73Z" transform="translate(-159.68 -196.65)"/>
      <path class="cls-8" d="M332.6,421.05l-32.91,15.42-32.91-15.42L243,429.46a56.89,56.89,0,0,0,36.41,48.77H320a56.9,56.9,0,0,0,36.41-48.77Z" transform="translate(-159.68 -196.65)"/>
      <path class="cls-9" d="M332.6,421.05l-32.91,15.42-32.91-15.42-16.35,5.77a49.29,49.29,0,0,0,98.52,0Z" transform="translate(-159.68 -196.65)"/>
      <path class="cls-10" d="M299.69,409.9A56.2,56.2,0,0,0,322.47,405V394.72H276.91V405A56.2,56.2,0,0,0,299.69,409.9Z" transform="translate(-159.68 -196.65)"/>
      <path class="cls-11" d="M350.94,337.78H349v-19c0-10.48-22.09-19-49.35-19s-49.35,8.5-49.35,19v19h-1.9a9.49,9.49,0,0,0,0,19h2.09a49.3,49.3,0,0,0,98.32,0h2.09a9.49,9.49,0,1,0,0-19Z" transform="translate(-159.68 -196.65)"/>
      <path class="cls-7" d="M330.83,305.88l1.65-1.24c-8.72-3-20.19-4.83-32.79-4.83-13.27,0-25.29,2-34.16,5.31-9.35,3.45-15.19,8.3-15.19,13.67v19H249c-5,0-9.49,3.58-10,8.52a9.49,9.49,0,0,0,9.44,10.46h2.09a49.33,49.33,0,0,0,49.16,45.56,50.32,50.32,0,0,0,7.62-.64A49.31,49.31,0,0,1,265.53,353v-15.3a7.57,7.57,0,0,1,6-7.42C289.18,326.55,312.87,319.41,330.83,305.88Z" transform="translate(-159.68 -196.65)"/>
      <g>
        <path class="cls-12" d="M261.73,341.57H246.55a3.8,3.8,0,1,1,0-7.59h15.18a3.8,3.8,0,1,1,0,7.59Z" transform="translate(-159.68 -196.65)"/>
        <path class="cls-12" d="M352.84,341.57H337.65a3.8,3.8,0,0,1,0-7.59h15.19a3.8,3.8,0,0,1,0,7.59Z" transform="translate(-159.68 -196.65)"/>
        <path class="cls-12" d="M307.28,345.37H292.1a3.8,3.8,0,1,1,0-7.59h15.18a3.8,3.8,0,1,1,0,7.59Z" transform="translate(-159.68 -196.65)"/>
      </g>
      <path class="cls-4" d="M246.55,326.39s49.36-3.7,79.71-26.58H246.55Z" transform="translate(-159.68 -196.65)"/>
      <g>
        <path class="cls-9" d="M250.34,368.14a7.59,7.59,0,0,1-9,7.46,7.76,7.76,0,0,1-6.16-7.84c.17-5.05,3.58-10,5.77-12.74a2.36,2.36,0,0,1,3.67,0C246.84,357.84,250.34,363,250.34,368.14Z" transform="translate(-159.68 -196.65)"/>
        <path class="cls-9" d="M364.22,368.14a7.59,7.59,0,0,1-9,7.46,7.74,7.74,0,0,1-6.15-7.84c.16-5.05,3.58-10,5.77-12.74a2.35,2.35,0,0,1,3.66,0C360.73,357.84,364.22,363,364.22,368.14Z" transform="translate(-159.68 -196.65)"/>
      </g>
      <path class="cls-12" d="M299.69,284.63c-27.25,0-49.35,8.5-49.35,19v15.18c0-10.48,22.1-19,49.35-19s49.35,8.5,49.35,19V303.61C349,293.13,326.94,284.63,299.69,284.63Z" transform="translate(-159.68 -196.65)"/>
      <g>
        <path class="cls-9" d="M322.47,364.35a19,19,0,0,1-19-19v-7.59a3.79,3.79,0,0,1,3.79-3.8h30.37a3.8,3.8,0,0,1,3.8,3.8v7.59A19,19,0,0,1,322.47,364.35Zm-11.39-22.78v3.8a11.39,11.39,0,1,0,22.77,0v-3.8Z" transform="translate(-159.68 -196.65)"/>
        <path class="cls-9" d="M276.91,364.35a19,19,0,0,1-19-19v-7.59a3.8,3.8,0,0,1,3.8-3.8H292.1a3.8,3.8,0,0,1,3.8,3.8v7.59A19,19,0,0,1,276.91,364.35Zm-11.38-22.78v3.8a11.39,11.39,0,1,0,22.77,0v-3.8Z" transform="translate(-159.68 -196.65)"/>
      </g>
      <path class="cls-12" d="M332.6,421.05l-32.91,15.42-32.91-15.42-11.59,4.09c.08.22.14.45.24.66L267.94,454a11.38,11.38,0,0,0,17.69,4.12l10.26-8.55v24.72c1.26.1,2.52.19,3.8.19s2.54-.09,3.8-.19V449.52l10.26,8.55A11.38,11.38,0,0,0,331.44,454L344,425.8c.1-.21.16-.44.24-.66Z" transform="translate(-159.68 -196.65)"/>
      <g>
        <path class="cls-9" d="M275.8,412.58l23.89,23.89-18.92,15.77a3.8,3.8,0,0,1-5.9-1.38l-12.5-28.14a2.27,2.27,0,0,1,.47-2.54l7.59-7.6A3.8,3.8,0,0,1,275.8,412.58Z" transform="translate(-159.68 -196.65)"/>
        <path class="cls-9" d="M329,412.58a3.8,3.8,0,0,0-5.37,0l-23.89,23.89,18.92,15.77a3.8,3.8,0,0,0,5.9-1.38L337,422.72a2.3,2.3,0,0,0-.47-2.54Z" transform="translate(-159.68 -196.65)"/>
      </g>
      <g>
        <path class="cls-8" d="M240.06,459.44,218.64,440.7a23,23,0,0,0-4.23,6.39l20.65,18.07a11.36,11.36,0,0,1,3.89,8.57v4.5h7.6v-4.5A19,19,0,0,0,240.06,459.44Z" transform="translate(-159.68 -196.65)"/>
        <path class="cls-8" d="M359.32,459.44l21.42-18.74a23,23,0,0,1,4.23,6.39l-20.65,18.07a11.36,11.36,0,0,0-3.89,8.57v4.5h-7.59v-4.5A19,19,0,0,1,359.32,459.44Z" transform="translate(-159.68 -196.65)"/>
      </g>
    </g>
  </g>
</svg>
