<svg id="Layer_1" data-name="Layer 1" xmlns="http://www.w3.org/2000/svg" xmlns:xlink="http://www.w3.org/1999/xlink" viewBox="0 0 280.77 280.77">
  <defs>
    <style>
      .cls-1 {
        fill: none;
      }

      .cls-2 {
        fill: #fff;
      }

      .cls-3 {
        clip-path: url(#clip-path);
      }

      .cls-4 {
        fill: #61515a;
      }

      .cls-5 {
        fill: #574750;
      }

      .cls-6 {
        fill: #ad8064;
      }

      .cls-7 {
        fill: #f5cc92;
      }

      .cls-8 {
        fill: #987055;
      }

      .cls-9 {
        fill: #c39373;
      }

      .cls-10 {
        fill: #efb77a;
      }

      .cls-11 {
        fill: #6b5b64;
      }
    </style>
    <clipPath id="clip-path" transform="translate(-148.12 -219.62)">
      <circle class="cls-1" cx="288.5" cy="360" r="140.38"/>
    </clipPath>
  </defs>
  <circle class="cls-2" cx="140.38" cy="140.38" r="140.38"/>
  <g class="cls-3">
    <g>
      <path class="cls-4" d="M388,420.67c.32-22.18-7.07-26-10.77-39.06s.07-22.05-4.34-36.56c-4.1-13.5-11.54-15.78-13.82-35-3.86-32.46-38.89-49.18-56.25-49.18-4.91,0-8.26,1.25-10.51,2.74a7.73,7.73,0,0,1-8.55,0c-2.25-1.49-5.6-2.74-10.51-2.74-17.36,0-52.4,16.72-56.25,49.18-2.28,19.18-9.73,21.46-13.83,35-4.4,14.51-.61,23.46-4.33,36.56s-11.09,16.88-10.77,39.06c.37,25.72-14.47,31.5-8.68,48.53,4.32,12.72,27.64,23.15,27.64,23.15H369s23.32-10.43,27.64-23.15C402.44,452.17,387.61,446.39,388,420.67Z" transform="translate(-148.12 -219.62)"/>
      <path class="cls-5" d="M288,264.94a7.74,7.74,0,0,1-4.27-1.29c-2.25-1.49-5.6-2.74-10.51-2.74-17.36,0-52.4,16.72-56.25,49.18-2.28,19.18-9.73,21.46-13.83,35-4.4,14.51-.61,23.46-4.33,36.56s-11.09,16.88-10.77,39.06c.37,25.72-14.47,31.5-8.68,48.53,4.32,12.72,27.64,23.15,27.64,23.15h81Z" transform="translate(-148.12 -219.62)"/>
      <path class="cls-6" d="M361.29,448.32l-39.84-14.06a15.41,15.41,0,0,1-10.29-14.55V399.77H264.87v19.94a15.42,15.42,0,0,1-10.29,14.55l-39.84,14.06a23.15,23.15,0,0,0-15.44,21.83v18.34a11.57,11.57,0,0,0,11.57,11.57H365.16a11.57,11.57,0,0,0,11.57-11.57V470.15A23.16,23.16,0,0,0,361.29,448.32Z" transform="translate(-148.12 -219.62)"/>
      <path class="cls-7" d="M361.29,448.32l-26.58-9.38c-10.46,14.46-24.7,30.41-41.27,39.24a11.52,11.52,0,0,1-10.85,0c-16.57-8.83-30.81-24.78-41.27-39.24l-26.58,9.38a23.16,23.16,0,0,0-15.44,21.83v18.34a11.57,11.57,0,0,0,11.57,11.57H365.16a11.57,11.57,0,0,0,11.57-11.57V470.15A23.16,23.16,0,0,0,361.29,448.32Z" transform="translate(-148.12 -219.62)"/>
      <path class="cls-8" d="M264.87,410.27a56.79,56.79,0,0,0,46.29,0v-10.5H264.87v10.5Z" transform="translate(-148.12 -219.62)"/>
      <path class="cls-9" d="M288,407.49h0a50.14,50.14,0,0,1-50.14-50.15V291.77H338.16v65.57A50.15,50.15,0,0,1,288,407.49Z" transform="translate(-148.12 -219.62)"/>
      <path class="cls-6" d="M237.87,291.77v65.57a49.77,49.77,0,0,0,57.86,49.49,50.11,50.11,0,0,1-42.43-49.49V337.28a16.86,16.86,0,0,1,2.66-8.92l0,0c6.33-10.17,12.26-11.66,19.12-13.39,3.95-1,8.54-2.15,12.9-5.06,4.37,2.91,9,4.07,12.9,5.06,6.87,1.73,12.79,3.22,19.13,13.39,5.89,9.45,12.48,14.67,18.12,18.71V291.77Z" transform="translate(-148.12 -219.62)"/>
      <g>
        <path class="cls-10" d="M227.54,469.34l-19.69-17.1a22.83,22.83,0,0,0-5.06,5.81l19.7,17.11a11.58,11.58,0,0,1,4,8.74v16.16h7.72V483.9A19.27,19.27,0,0,0,227.54,469.34Z" transform="translate(-148.12 -219.62)"/>
        <path class="cls-10" d="M348.66,469.34l19.69-17.1a22.83,22.83,0,0,1,5.06,5.81l-19.69,17.11a11.56,11.56,0,0,0-4,8.74v16.16H342V483.9A19.27,19.27,0,0,1,348.66,469.34Z" transform="translate(-148.12 -219.62)"/>
      </g>
      <path class="cls-11" d="M377.21,381.61c-3.72-13.1.07-22.05-4.34-36.56-4.1-13.5-11.54-15.78-13.82-35-3.86-32.46-38.89-49.18-56.25-49.18-4.91,0-8.26,1.25-10.51,2.74a7.77,7.77,0,0,1-4.28,1.29v34.55c10,12.53,24.75,2.57,38.58,24.75,11.74,18.85,26.5,18.37,31.69,33.23,1.48,4.26.68,8.81,1,13.31,2,25.14,21.28,36.71,29.95,62.94A56,56,0,0,1,388,420.67C388.3,398.49,380.91,394.63,377.21,381.61Z" transform="translate(-148.12 -219.62)"/>
      <path class="cls-4" d="M198.82,381.61c3.72-13.1-.07-22.05,4.33-36.56,4.1-13.5,11.55-15.78,13.83-35,3.85-32.46,38.89-49.18,56.25-49.18,4.91,0,8.26,1.25,10.51,2.74a7.74,7.74,0,0,0,4.27,1.29v34.55c-10,12.53-24.75,2.57-38.57,24.75-11.75,18.85-26.5,18.37-31.69,33.23-1.49,4.26-.68,8.81-1,13.31-2,25.14-21.28,36.71-29.95,62.94a56,56,0,0,0,1.28-13.05C187.73,398.49,195.12,394.63,198.82,381.61Z" transform="translate(-148.12 -219.62)"/>
    </g>
  </g>
</svg>
