<svg id="Layer_1" data-name="Layer 1" xmlns="http://www.w3.org/2000/svg" xmlns:xlink="http://www.w3.org/1999/xlink" viewBox="0 0 280.77 280.99">
  <defs>
    <style>
      .cls-1 {
        fill: none;
      }

      .cls-2 {
        fill: #fff;
      }

      .cls-3 {
        clip-path: url(#clip-path);
      }

      .cls-4 {
        fill: #b4defb;
      }

      .cls-5 {
        fill: #ddb080;
      }

      .cls-6 {
        fill: #c99c75;
      }

      .cls-7 {
        fill: #694c53;
      }

      .cls-8 {
        fill: #58424b;
      }

      .cls-9 {
        fill: #4c3540;
      }

      .cls-10 {
        fill: #e7c18e;
      }

      .cls-11 {
        fill: #c6e9fc;
      }
    </style>
    <clipPath id="clip-path" transform="translate(-166.12 -214.62)">
      <circle class="cls-1" cx="306.5" cy="355" r="140.38"/>
    </clipPath>
  </defs>
  <circle class="cls-2" cx="140.38" cy="140.38" r="140.38"/>
  <g class="cls-3">
    <g>
      <path class="cls-4" d="M374.07,445.53l-25.38-11.08H264l-25.38,11.08a28.24,28.24,0,0,0-16.91,27.07l2.59,13.69a9.4,9.4,0,0,0,9.4,9H379a9.41,9.41,0,0,0,9.4-9L391,472.6A28.23,28.23,0,0,0,374.07,445.53Z" transform="translate(-166.12 -214.62)"/>
      <rect class="cls-5" x="116.69" y="186.91" width="47.04" height="47.04"/>
      <path class="cls-6" d="M282.8,415.19a56.28,56.28,0,0,0,47,0V401.52h-47Z" transform="translate(-166.12 -214.62)"/>
      <circle class="cls-7" cx="140.21" cy="64.6" r="28.23"/>
      <ellipse class="cls-8" cx="140.21" cy="113.99" rx="56.45" ry="54.1"/>
      <path class="cls-9" d="M287.51,335.66c-18.82-18.81-21.63-35-21.19-45.22a52.84,52.84,0,0,0-16.45,38.17A52,52,0,0,0,258,356.47Z" transform="translate(-166.12 -214.62)"/>
      <path class="cls-10" d="M360,345.27a26.38,26.38,0,0,0-2.7-.2,9.42,9.42,0,0,1-6.65-2.75l-4.06-4.06a9.33,9.33,0,0,0-6.08-2.74c-9.16-.51-34.55-2.79-54.73-12.69a4.69,4.69,0,0,0-6.07,1.54,96.33,96.33,0,0,1-15.49,18.21,9.39,9.39,0,0,1-6.38,2.49h-3.39a9.65,9.65,0,0,0-1.58.17c-4.58.89-7.66,5.26-7.66,9.93v3.4c0,4.5,2.88,8.75,7.26,9.77a9.47,9.47,0,0,0,2.87.23,4.57,4.57,0,0,1,4.8,3.82,47,47,0,0,0,92.45,0,4.57,4.57,0,0,1,4.8-3.82,9.47,9.47,0,0,0,2.87-.23c4.38-1,7.26-5.27,7.26-9.77v-4.28C367.48,349.86,364.17,346.64,360,345.27Z" transform="translate(-166.12 -214.62)"/>
      <path class="cls-5" d="M278.1,363.89V326.71a98.68,98.68,0,0,1-13.92,15.87,9.39,9.39,0,0,1-6.38,2.49h-3.39a9.65,9.65,0,0,0-1.58.17c-4.58.89-7.66,5.26-7.66,9.93v3.4c0,4.5,2.88,8.75,7.26,9.77a9.47,9.47,0,0,0,2.87.23,4.57,4.57,0,0,1,4.8,3.82,47,47,0,0,0,46.22,38.54,47.77,47.77,0,0,0,9.33-.95A47.06,47.06,0,0,1,278.1,363.89Z" transform="translate(-166.12 -214.62)"/>
      <g>
        <path class="cls-11" d="M246.94,472.34l-17.19-20.63a28.17,28.17,0,0,0-8.08,20.89l2.59,13.69a9.4,9.4,0,0,0,9.4,9h20.91v-1.88A32.94,32.94,0,0,0,246.94,472.34Z" transform="translate(-166.12 -214.62)"/>
        <path class="cls-11" d="M365.7,472.34l17.19-20.63A28.13,28.13,0,0,1,391,472.6l-2.58,13.69a9.41,9.41,0,0,1-9.4,9H358.07v-1.88A32.94,32.94,0,0,1,365.7,472.34Z" transform="translate(-166.12 -214.62)"/>
        <path class="cls-11" d="M337.87,423.67a4.7,4.7,0,0,0-6.65,0l-22.74,22.74a3.06,3.06,0,0,1-4.32,0l-22.74-22.74a4.7,4.7,0,0,0-6.65,0L264,434.45l17.41,28.26a4.71,4.71,0,0,0,7.06,1.11l10.43-8.9a1.66,1.66,0,0,1,2.74,1.26V495.3H311V456.18a1.65,1.65,0,0,1,2.73-1.26l10.44,8.9a4.71,4.71,0,0,0,7.06-1.11l17.4-28.26Z" transform="translate(-166.12 -214.62)"/>
        <path class="cls-11" d="M263.86,495.61h28.35a4.7,4.7,0,0,0-4.71-4.7H268.69c-2.6,0-4.71-.5-4.71,2.1Z" transform="translate(-166.12 -214.62)"/>
      </g>
    </g>
  </g>
</svg>
